<?xml version="1.0" encoding="utf-8"?>
<svg id="Layer_1" data-name="Layer 1" xmlns="http://www.w3.org/2000/svg" xmlns:xlink="http://www.w3.org/1999/xlink" x="0px" y="0px" viewBox="0 0 1900 1200" xml:space="preserve" preserveAspectRatio="none">
  <defs>
    <style>
      .cls-1 {
        fill: none;
      }

      .cls-2 {
        clip-path: url(#clip-path);
      }

      .cls-3 {
        fill: #fefefe;
      }

      .cls-4 {
        fill: #5d5d90;
      }

      .cls-5 {
        fill: #6ba5f5;
      }

      .cls-6 {
        fill: #fe648a;
      }

      .cls-7 {
        fill: #c4c9d7;
      }

      .cls-8 {
        fill: #d7e2f1;
      }

      .cls-9 {
        fill: #4a4982;
      }

      .cls-10 {
        fill: #d7e2f0;
      }

      .cls-11 {
        fill: #5fa592;
      }

      .cls-12 {
        fill: #fe4878;
      }

      .cls-13 {
        fill: #febac3;
      }

      .cls-14 {
        fill: #403456;
      }

      .cls-15 {
        fill: #f1f1f2;
      }

      .cls-16 {
        fill: #f0f0f1;
      }

      .cls-17 {
        fill: #372e60;
      }

      .cls-18 {
        fill: #5a9d8e;
      }

      .cls-19 {
        fill: #599b8d;
      }

      .cls-20 {
        fill: #f0f0f2;
      }

      .cls-21 {
        fill: #feafbb;
      }

      .cls-22 {
        fill: #fd4878;
      }

      .cls-23 {
        fill: #eaebee;
      }

      .cls-24 {
        fill: #383162;
      }

      .cls-25 {
        fill: #a8b2c2;
      }

      .cls-26 {
        fill: #fbbac4;
      }

      .cls-27 {
        fill: #eaeaee;
      }

      .cls-28 {
        fill: #3e3868;
      }

      .cls-29 {
        fill: #fb658b;
      }

      .cls-30 {
        fill: #fabac4;
      }

      .cls-31 {
        fill: #b4b3c2;
      }

      .cls-32 {
        fill: #56838a;
      }

      .cls-33 {
        fill: #312449;
      }

      .cls-34 {
        fill: #4d4b84;
      }

      .cls-35 {
        fill: #3a3874;
      }

      .cls-36 {
        fill: #5d968f;
      }

      .cls-37 {
        fill: #c1cedf;
      }

      .cls-38 {
        fill: #608fdc;
      }

      .cls-39 {
        fill: #febac4;
      }

      .cls-40 {
        fill: #fcedef;
      }

      .cls-41 {
        fill: #343760;
      }

      .cls-42 {
        fill: #ededf0;
      }

      .cls-43 {
        fill: #e4e7ec;
      }

      .cls-44 {
        fill: #22134a;
      }

      .cls-45 {
        fill: #9ba0b4;
      }

      .cls-46 {
        fill: #e7e7eb;
      }

      .cls-47 {
        fill: #e9e9ed;
      }

      .cls-48 {
        fill: #ebecee;
      }

      .cls-49 {
        fill: #ebebee;
      }

      .cls-50 {
        fill: #3a3564;
      }

      .cls-51 {
        fill: #ced7e7;
      }

      .cls-52 {
        fill: #383161;
      }

      .cls-53 {
        fill: #4a4882;
      }

      .cls-54 {
        fill: #393262;
      }

      .cls-55 {
        fill: #397570;
      }

      .cls-56 {
        fill: #3d3967;
      }

      .cls-57 {
        fill: #393263;
      }

      .cls-58 {
        fill: #5a998d;
      }

      .cls-59 {
        fill: #5b868d;
      }

      .cls-60 {
        fill: #57888a;
      }

      .cls-61 {
        fill: #5c5c8f;
      }

      .cls-62 {
        fill: #5ea191;
      }

      .cls-63 {
        fill: #f1f1f3;
      }

      .cls-64 {
        fill: #3e3969;
      }

      .cls-65 {
        fill: #9d9fb2;
      }

      .cls-66 {
        fill: #343660;
      }

      .cls-67 {
        fill: #20214a;
      }

      .cls-68 {
        fill: #a1a3b5;
      }

      .cls-69 {
        fill: #9fa1b4;
      }

      .cls-70 {
        fill: #84c5ac;
      }

      .cls-71 {
        fill: #6aa291;
      }

      .cls-72 {
        fill: #e2e2e8;
      }

      .cls-73 {
        fill: #5c8c8e;
      }

      .cls-74 {
        fill: #5a918e;
      }

      .cls-75 {
        fill: #3c3767;
      }

      .cls-76 {
        fill: #4d4980;
      }

      .cls-77 {
        fill: #302961;
      }

      .cls-78 {
        fill: #f7cd21;
      }

      .cls-79 {
        fill: #d4dcdf;
      }

      .cls-80 {
        fill: #383363;
      }

      .cls-81 {
        fill: #393564;
      }

      .cls-82 {
        fill: #bab9cc;
      }

      .cls-83 {
        fill: #d7d7de;
      }

      .cls-84 {
        fill: #608982;
      }

      .cls-85 {
        fill: #e5e4ea;
      }

      .cls-86 {
        fill: #393563;
      }

      .cls-87 {
        fill: #444370;
      }

      .cls-88 {
        fill: #363061;
      }

      .cls-89 {
        fill: #e1e1e8;
      }

      .cls-90 {
        fill: url(#linear-gradient);
      }

      .cls-91 {
        fill: url(#linear-gradient-2);
      }
    </style>
    <clipPath id="clip-path" transform="translate(0 62.35)">
      <rect class="cls-1" width="1920" height="1080"/>
    </clipPath>
    <linearGradient id="linear-gradient" x1="-48.21" y1="672.57" x2="592.14" y2="1191.84" gradientUnits="userSpaceOnUse">
      <stop offset="0" stop-color="#6dc9b1"/>
      <stop offset="0.16" stop-color="#75ccb6"/>
      <stop offset="0.41" stop-color="#8ad5c3"/>
      <stop offset="0.71" stop-color="#ace3d8"/>
      <stop offset="1" stop-color="#d4f4f1"/>
    </linearGradient>
    <linearGradient id="linear-gradient-2" x1="1675.67" y1="423.96" x2="2053.38" y2="-37.37" xlink:href="#linear-gradient"/>
  </defs>
  <title>landing</title>
  <g class="cls-2">
    <g>
      <path class="cls-3" d="M1322.83,1334.3q-441.13,0-882.26.22c-8.4,0-10.26-1.85-10.25-10.25q.36-688.18,0-1376.37c0-8.4,1.85-10.25,10.25-10.25q883.37.35,1766.74,0c8.4,0,10.26,1.85,10.26,10.25q-.36,688.19,0,1376.37c0,8.4-1.85,10.26-10.26,10.25Q1765.07,1334.13,1322.83,1334.3ZM1032,562c.13,3.1.25,6.19.38,9.29-10.09-3.27-19.63-4.34-28.61,3.57-6.25,5.51-13.46,9.93-20.24,14.84q-3,8.46-5.95,16.92c-.46-2.76-.92-5.52-1.55-9.27-18.83,10.89-36.88,21.12-54.69,31.76-4.93,2.95-9.13,7.12-13.66,10.73q-.95,4.86-1.91,9.71a16,16,0,0,0-2.18.36c-3.45-.18-7.66-1.75-10.22-.34C872.65,661,851.78,672.34,832,685.3c-6.22,4.08-9.28,13-13.79,19.64-8.66,13.09-1.49,21,9.13,27.72l-8.7,8c-18.39,19.73-17.29,37.84,3.75,51q56.83,35.57,114.08,70.45c30,18.3,60.21,36.14,90.3,54.23q48.52,29.17,97,58.43c33,19.82,66.44,38.93,98.92,59.55,35,22.23,69.32,26,104.6,1.3,9.34-6.56,19.22-12.38,29.06-18.2,45.22-26.75,90.69-53,135.68-80.17,24.38-14.69,25-35.69,2.56-53.66L1481,872.28c6.12-7.13,21.58-6.67,17.76-21.87a5.23,5.23,0,0,0,.46-2.13c5-11.87,0-19.53-10.19-25.59-29.49-17.58-58.82-35.4-88.22-53.13l-3.72-4.92c4.82,1.88,7.69,3.67,10.76,4.08,10.88,1.44,23.65,5.45,30.9-5.34,7.11-10.58-.28-21.16-7.78-28.74-16.87-17-33.56-34.64-52.6-49A957.51,957.51,0,0,0,1293,628.27c-28.27-16.9-58.49-30.49-87.34-46.46a461,461,0,0,0-127.2-47.59c-27.54-5.92-36.23-.69-36.7,21.47Zm631.77,197c.09,4.73,0,9.47.29,14.2.61,10.25,1.4,20.5,2.11,30.75,4.41,11.23,12.21,5.29,14.86.71,7.59-13.14,14.57-27.19,7.83-43.27l-7.11-20.09-4-9.25c-.86-3.93-1-8.16-2.68-11.74-10.1-22.27-21.16-44.13-30.61-66.67-6.22-14.84-10.27-30.59-15.29-46l17.78-2.42,26.14-5.25c29.86-6.16,55.55-20.68,79.49-38.75-3.92-7.66-8.28-14.29-10.86-21.56-15-42.24-26.81-85.87-45-126.68C1673,359.69,1632.49,323.27,1573,312.11q-1.25-4.35-2.5-8.68l13.11-17.7c16.07-25.42,8.34-50.19-17.45-55.92l-29.23.08c-25,4.5-29.7,10.25-21.88,27-6.8,19.7-5.81,38.49,6.61,55.92l-.33-.14c-19.82,0-37.25,14.9-44.49,38-11.93,22.74-24.24,45.07-49.19,56.59-3.88,1.79-6.61,6-10.46,7.87-11.4,5.59-21.08,20.93-36.61,6.11-2.36-2.25-11-.44-14.81,2.2-2.76,1.88-4.26,8.85-3.12,12.58,3.85,12.69,32.44,28.19,47.36,26.24l-3.28-9.15c5.91-3.56,11.77-6.73,17.26-10.47,20.19-13.72,44.77-21.71,56.77-46,4.65-9.42,12.25-17.38,18.51-26-1.4,28.15-.7,56.09,8.73,83.1q1.26,17.76,2.53,35.52c4.82,38.85,9.26,77.75,14.72,116.52,1.66,11.84,2.81,26.23,10,34.32,17.54,19.78,38.47,36.56,58,54.53l6.09,8.46c-1,10.28-2.3,20.56-2.72,30.86-.28,6.86.75,13.76,1.2,20.64,4.2.43,11.38,2.45,12.13,1,8.15-15.31,15.33-31.14,22.57-46.93.27-.59-1.53-2.14-2.37-3.25l-12.73-20.49-6.48-8.42c-7.61-8.92-14.76-18.29-22.93-26.67-16.34-16.79-29.07-34.69-24.64-60,.54-3.13-.58-6.55-.93-9.83,2.71,2.71,5.28,5.58,8.15,8.11,5.62,5,11.4,9.72,17.11,14.56,9.39,22,17.66,44.54,28.45,65.82,12.51,24.68,27.23,48.26,41,72.31Q1660.45,749.9,1663.77,758.93Zm-491.8-280c-8.47,3.55-16.71,4.61-17.88,8.07-1.56,4.6,1.71,11.38,4.17,16.64a31.3,31.3,0,0,0,9,11.17c30.13,23.1,59.68,47.12,91.11,68.33,20.17,13.62,42.65,24.28,65.12,33.88,28.37,12.12,57.74,21.93,86.77,32.48,9.16,3.33,21,4.94,24.23-5.26,2.08-6.58-5.27-16.18-8.58-24.35-.52-1.27-1.94-2.24-3.09-3.18-18.56-15.19-35.76-32.63-56-45.05-39.08-23.93-79.17-46.5-120.27-66.73C1222.6,493.19,1195.94,487.1,1172,478.94Zm118.49-45.1c-3.5,2.62-6.86,4.28-8.82,7-1,1.3-.06,5.31,1.36,6.75,9.31,9.47,17.58,21.16,28.82,27.31,30,16.44,61.22,30.87,92.41,45,6.14,2.78,14.41.87,21.69,1.13q-5.26-10.49-10.55-21a2.28,2.28,0,0,0-.84-.72c-27.32-16.77-54.21-34.31-82.17-49.93C1319.66,442.34,1304.84,439.05,1290.46,433.84Z" transform="translate(0 62.35)"/>
      <path class="cls-4" d="M1400.85,769.56c29.4,17.73,58.73,35.55,88.22,53.13,10.16,6.06,15.16,13.72,10.19,25.59-.75-.83-2-2.48-2.19-2.38-40.32,25.22-80.48,50.72-120.86,75.84-26.69,16.61-53.76,32.6-80.55,49-12.05,7.39-37.56,4.6-49.52-2.89-23.8-14.91-48.6-28.23-73-42.2.21-2.67-.41-5.81.76-8,22.25-40.4,44.54-80.79,67.4-120.84,2-3.53,8.09-4.75,12.28-7l127.48-17.82ZM1365.51,895l.82-2.53c3.7,0,8.33,1.43,10.92-.27,7.34-4.83,13.86-10.93,20.7-16.53-5.72-5.51-10.9-11.77-17.27-16.38-14.15-10.26-27.14-2.8-39.66,4.31-9.31,5.28-10.63,16-1.66,21.54C1347.11,889.93,1356.72,891.78,1365.51,895Z" transform="translate(0 62.35)"/>
      <path class="cls-5" d="M1562.4,580.05c.35,3.28,1.47,6.7.93,9.83-4.43,25.27,8.3,43.17,24.64,60,8.17,8.38,15.32,17.75,22.93,26.67-1.19,10.63-4.59,19.1-17.68,18.1-19.57-18-40.5-34.76-58-54.54-7.17-8.09-8.32-22.48-10-34.32-5.46-38.77-9.9-77.67-14.73-116.52,12,2.44,24.13,7.54,35.88,6.72,19.7-1.37,39.12-6.65,58.71-10,3-.51,6.37.71,9.56,1.12,1.57,2.11,3.13,4.22,4.7,6.32q2.48,36.8,5,73.59l4.86,40.61c5,15.35,9.07,31.1,15.29,45.94,9.45,22.54,20.51,44.4,30.61,66.67,1.63,3.58,1.82,7.81,2.68,11.74-4.43,8.64-11.61,10.89-20.62,8.87-13.76-24.05-28.48-47.63-41-72.31-10.79-21.28-19.06-43.83-28.45-65.82-4.12-16.8-7.62-33.79-12.72-50.28-1.77-5.72-7.52-10.21-11.46-15.27l-14.71-5.89c4,23.26,7.7,44.78,11.39,66.3l1.66-.14V579.82Z" transform="translate(0 62.35)"/>
      <path class="cls-6" d="M1573,312.1c59.54,11.17,100,47.59,123.76,100.86,18.17,40.81,30,84.44,45,126.68,2.58,7.27,6.94,13.9,10.86,21.56-23.94,18.07-49.63,32.59-79.49,38.75.31-1.05,1.2-2.35.86-3.11-8.86-19.88-18.2-39.56-26.69-59.59-4.58-10.8-13.82-25-10.27-32.76,7.59-16.65,1.89-30.48-1.1-45.16-5.08-25-12.49-49.68-3-75.18,33.23,29.82,39.06,69.68,40.68,111.73l7.84-3.68c2.48,2.94,4.39,7.41,7.27,8.16,5.06,1.31,12.3,2.37,15.66-.26s5.34-10.43,4.21-15.05c-2.79-11.35-7.72-22.18-11.78-33.22-8.86-24.13-11.15-51-29.08-71.36-9-10.23-18.33-20.16-27.51-30.22-8.26-6.8-16.16-14.16-25-20.07-2.73-1.81-9.31-1.22-12.07.92-15.78,12.27-32.37,22.12-54.86,22.62,4,8.09,7.37,15.08,10.78,22.07l-2.49,2.92-16-10.64-19.14,5.09-1.25-3.65c4.61-6,9.23-11.94,14-18.12-14-10.22-17.2-23.3-12.81-38.73l.33.14,15,6.74c-6,21-1.13,28.07,17.89,26.31,17.73-5,21.78-12.75,15.84-29.71C1570,315.21,1572,313.47,1573,312.1Z" transform="translate(0 62.35)"/>
      <path class="cls-7" d="M1494.6,883.6c22.41,18,21.82,39-2.56,53.66-45,27.12-90.46,53.42-135.68,80.17-9.84,5.82-19.72,11.64-29.06,18.2-35.28,24.73-69.59,20.93-104.6-1.3-32.48-20.62-65.93-39.73-98.92-59.55q-48.54-29.17-97-58.43c-30.09-18.09-60.33-35.93-90.3-54.23q-57.22-34.92-114.08-70.45c-21-13.17-22.14-31.28-3.75-51-5.36,16.58-1.19,29,15.28,36.68,6.32,2.94,12.18,6.88,18.25,10.36l42.41,26.72c24.92,15.08,49.8,30.23,74.77,45.23,34.53,20.73,69.05,41.48,103.73,62,23.9,14.1,48.14,27.63,72.1,41.64,20.63,12.06,41.08,24.43,61.6,36.66l37.76,24.49c19.83,11.59,40.06,12.17,60.68,2.23,10.2-6.31,20.53-12.42,30.55-19,5.6-3.68,10.69-8.14,16-12.25l15.5-6.88,25.43-10.71-3.24,14.3c7.18-3.8,11.63-6,15.93-8.46,8.25-4.75,9.51-10.52,2.21-17.32,1.87-1.68,3.52-3.75,5.66-5q32.12-18.51,64.37-36.78C1501.67,910.89,1503.41,906.75,1494.6,883.6ZM872,804.69c-1.31,12.69,8.64,21.36,27.3,26.39C898,813.77,881.65,814.47,872,804.69Zm37.45,24.64c-.25,17.55,16,16.71,25.5,23.53C935.1,835.76,918.53,836.66,909.45,829.33Zm-66.35-41-4.24,4q9.17,9.45,18.34,18.91C862.63,794.81,852,792.31,843.1,788.32Z" transform="translate(0 62.35)"/>
      <path class="cls-8" d="M1614.62,487.12c-3.19-.42-6.52-1.64-9.56-1.13-19.59,3.31-39,8.59-58.71,10-11.75.82-23.9-4.28-35.88-6.72L1508,453.71l6.15-54.09c4.88,1.67,9.63,4.06,14.64,4.88,23,3.82,46.26,6.59,69.13,11.16,5.47,1.09,10.57,7,14.44,11.88,2.2,2.75,2.06,7.76,2.12,11.77C1614.67,455.24,1614.58,471.18,1614.62,487.12Z" transform="translate(0 62.35)"/>
      <path class="cls-9" d="M818.21,704.94c4.51-6.68,7.57-15.56,13.79-19.64,19.78-13,40.65-24.3,61.37-35.77,2.56-1.41,6.77.16,10.21.34l44.52,48.68c-9.23,4.6-18.55,9-27.57,14-1.24.68-1,4.05-1.44,6.17-1.43,3.9-3.91,7.75-4.11,11.71-.65,12.44-.44,24.92-.57,37.39-17.84-10.77-35.83-21.32-53.49-32.39-14.22-8.92-28-18.47-42-27.73Z" transform="translate(0 62.35)"/>
      <path class="cls-10" d="M1521.28,312.66c-4.39,15.43-1.21,28.51,12.81,38.73-4.79,6.18-9.41,12.15-14,18.12l1.25,3.65,19.14-5.09,16,10.64,2.49-2.92c-3.41-7-6.82-14-10.78-22.07,22.49-.5,39.08-10.35,54.86-22.62,2.76-2.14,9.34-2.73,12.07-.92,8.86,5.91,16.76,13.27,25,20.07q-9.4,11.26-18.8,22.52l-16.77-11c-.31,4.75-.36,8-.77,11.25-2.54,19.9-11.59,31.32-25.41,30.85-9.52-.33-19-2-28.47-3.28-12.53-1.67-25-3.5-37.56-5.27l-4.53-35.48q-.66-8.48-1.31-17l-3.77-.5-8.25,21.91-17.69-13.58C1484,327.56,1501.46,312.67,1521.28,312.66Z" transform="translate(0 62.35)"/>
      <path class="cls-11" d="M1253.59,789.87c-4.19,2.29-10.26,3.51-12.28,7-22.86,40.05-45.15,80.44-67.4,120.84-1.17,2.14-.55,5.28-.76,8,1.82,2.76,3,6.52,5.56,8.11,12.1,7.54,24.57,14.49,36.9,21.65l-2,1.84c-9.34-5.23-18.75-10.34-28-15.7q-40.56-23.46-81-47.1L1035,850.25l4.37-2.67,24.53-42c-2.21-4-3.5-10.52-6.76-11.75-26.51-10-53.39-19.06-80.16-28.4,6.83-11.34,14-22.52,20.25-34.17,1.48-2.76.07-7.09,0-10.69L957,700.87c-.08-.9-.17-1.8-.25-2.69l22.64-44.34L979,627.18c.13-1.5.26-3,.38-4.5q-.89-8.05-1.78-16.1,3-8.46,5.95-16.93l.51,53.19,4.13,6,.09,2.87-24.35,42.39c1.13,2.11,1.72,5.27,3.46,6.14,12.2,6.13,24.53,12.05,37.1,17.36,2.42,1,6.58-.15,9.12-1.67q30.25-18.12,60.08-37c1.92-1.21,2.39-4.71,3.53-7.15l-6.22-8.81c.62-2.27,1.25-4.54,1.87-6.82,0-.8.07-1.6.11-2.4l15.24,11.66,4.89,4.06c2,3.69,3.22,8,6,11,18.07,19.46,36.46,38.62,54.75,57.88q0,4.64-.08,9.25l17.14,22.76-2,1.85-26.77,4.27c-17,6.28-34.19,12.08-50.95,18.94-25.38,10.39-32.72,34.67-42.41,57,2.94,3.07,5.38,6.94,8.88,9.08q47.12,28.8,94.62,56.94c3.61,2.13,8.31,2.41,12.51,3.55,16.08-28.66,32.42-57.19,48.15-86,8.23-15.11,15.41-30.79,23.07-46.21a7.74,7.74,0,0,0-.06-2l2.48-2.53,12.81,2.44Zm-96-28.76-15.43-20.22c-17.33-19.23-34.45-38.65-52.24-57.44-2.21-2.34-8.8-3.06-11.9-1.54-8.16,4-15,10.69-23.29,14.47-29.31,13.44-52.8,32.1-62.19,64.55,2.7,2.81,4.89,6.93,8.18,8.23,16.22,6.37,33.1,11.14,49,18.1,17.19,7.5,33.06,9,50.68.42,15.92-7.75,33.38-12.28,49.94-18.8C1153.37,767.71,1155.24,763.77,1157.62,761.11Z" transform="translate(0 62.35)"/>
      <path class="cls-12" d="M1632.83,384.15c-9.46,25.5-2,50.2,3,75.18,3,14.68,8.69,28.51,1.1,45.16-3.55,7.78,5.69,22,10.27,32.76,8.49,20,17.83,39.71,26.69,59.59.34.76-.55,2.06-.86,3.11l-26.14,5.25c-3.21-2.41-7.77-4.13-9.38-7.34-5-10-8.92-20.52-13.26-30.84q-2.47-36.79-5-73.59c1.45-10.08,5.32-20.52,3.88-30.17-4.41-29.46-8.45-58.65-1.28-88.17Z" transform="translate(0 62.35)"/>
      <path class="cls-13" d="M1476.79,350.67q8.84,6.79,17.69,13.57l6.83,2q-1.05,2.17-2.09,4.36c-6.26,8.62-13.86,16.58-18.51,26-12,24.32-36.58,32.31-56.77,46-5.49,3.74-11.35,6.91-17.26,10.47l3.28,9.15c-14.92,1.95-43.51-13.55-47.36-26.24-1.14-3.73.36-10.7,3.12-12.58,3.86-2.64,12.45-4.45,14.81-2.2,15.53,14.82,25.21-.52,36.61-6.11,3.85-1.88,6.58-6.08,10.46-7.87C1452.55,395.74,1464.86,373.41,1476.79,350.67Z" transform="translate(0 62.35)"/>
      <path class="cls-9" d="M984,642.84l-.51-53.19c6.78-4.9,14-9.32,20.24-14.83,9-7.91,18.52-6.84,28.61-3.57l28.1,10.58,5.85,2.77,4.38,4.73q-1.05,13.35-2.08,26.69c-2.34-1.49-5.17-4.71-7-4.21-17.54,5-35.18,9.79-52.22,16.19C1000.4,631.4,992.48,637.8,984,642.84Z" transform="translate(0 62.35)"/>
      <path class="cls-9" d="M979,627.18l.39,26.66-24,36.46c-13.73-12.66-27.76-25.22-41.24-38.34-3.14-3.05-4.37-8.06-6.48-12.16,4.53-3.61,8.73-7.78,13.66-10.73,17.81-10.64,35.86-20.87,54.69-31.76.63,3.75,1.09,6.51,1.55,9.27q.9,8,1.78,16.1c-4.25-1.18-9.75-4.67-12.54-3.16-14,7.58-27.34,16.47-40.9,24.9.53,1.91,1.05,3.82,1.58,5.73,6-.62,12.87.4,17.88-2.17C957.05,642,967.84,634.22,979,627.18Z" transform="translate(0 62.35)"/>
      <path class="cls-13" d="M1536.61,319.54l-15-6.74c-12.42-17.43-13.41-36.22-6.61-55.93,7.86-.05,15.88.89,23.54-.38,14.36-2.37,19.16.69,19.87,15.23.31,6.28.06,12.6.06,20.5,8.71-5.94,14.66-17.24,25.09-6.49l-13.11,17.7-29.36,13.78Z" transform="translate(0 62.35)"/>
      <path class="cls-14" d="M1583.56,285.73c-10.43-10.75-16.38.55-25.09,6.49,0-7.9.25-14.22-.06-20.5-.71-14.54-5.51-17.6-19.87-15.23-7.66,1.27-15.68.33-23.54.38-7.82-16.73-3.16-22.48,21.88-27l29.23-.08C1591.9,235.54,1599.63,260.31,1583.56,285.73Z" transform="translate(0 62.35)"/>
      <path class="cls-15" d="M1172,478.94c24,8.16,50.63,14.25,74.51,26,41.1,20.23,81.19,42.8,120.27,66.73,20.27,12.42,37.47,29.86,56,45.05,1.15.94,2.57,1.91,3.09,3.18,3.31,8.17,10.66,17.77,8.58,24.35-3.22,10.2-15.07,8.59-24.23,5.26-29-10.55-58.4-20.36-86.77-32.48-22.47-9.6-45-20.26-65.12-33.88-31.43-21.21-61-45.23-91.11-68.33a31.3,31.3,0,0,1-9-11.17c-2.46-5.26-5.73-12-4.17-16.64C1155.26,483.55,1163.5,482.49,1172,478.94Zm245.89,171.22c15.57-2.71,18.15-6.32,11.35-19.06a51.83,51.83,0,0,0-12.36-15.54c-18.58-15.18-36.63-31.39-56.84-44.1-47-29.56-95-57.7-147.72-76.27a253.38,253.38,0,0,0-40.74-10.26c-4.59-.8-10.25,2.58-14.76,5.19-.84.49.45,7.28,2.5,9.67,8.41,9.83,16.32,20.66,26.55,28.25,25.52,18.92,51.16,38.11,78.7,53.78,31.18,17.75,64.2,32.38,96.94,47.21C1379.72,637.29,1399,643.19,1417.86,650.16Z" transform="translate(0 62.35)"/>
      <path class="cls-16" d="M1066.33,584.6l-5.85-2.77q-5.09-7.37-10.2-14.74l-8.54-11.4c.47-22.16,9.16-27.39,36.7-21.47a461,461,0,0,1,127.2,47.59c28.85,16,59.07,29.56,87.34,46.46a957.51,957.51,0,0,1,85.43,57.36c19,14.37,35.73,32,52.6,49,7.5,7.58,14.89,18.16,7.78,28.74-7.25,10.79-20,6.78-30.9,5.34-3.07-.41-5.94-2.2-10.76-4.08l3.72,4.92-19.78,2.49c0-1.25,0-2.51-.07-3.76l9.21-1.18-5.9-6.2,19.38.16c8.35,1.41,16.73,4.06,25,3.85,7.57-.2,13.77-5.58,7.34-13.4-13.71-16.67-26.51-35.08-43.37-47.95-36.9-28.17-75.34-54.54-114.63-79.28-25.94-16.32-53.88-29.87-82-42.25-34.36-15.13-69.64-28.28-105-41.07-10.52-3.82-22.48-4.43-33.83-4.74-4.15-.11-8.61,4.71-12.39,7.91-.42.36,2.71,4.91,4.2,7.52l16.45,24.41,2.78,6.53Z" transform="translate(0 62.35)"/>
      <path class="cls-17" d="M1215.61,955.46c-12.33-7.16-24.8-14.11-36.9-21.65-2.54-1.59-3.74-5.35-5.56-8.11,24.39,14,49.19,27.29,73,42.2,12,7.49,37.47,10.28,49.52,2.89,26.79-16.45,53.86-32.44,80.55-49,40.38-25.12,80.54-50.62,120.86-75.84.17-.1,1.44,1.55,2.19,2.38a5.15,5.15,0,0,1-.46,2.12c-3.63,3.64-6.72,8.17-11,10.78q-49.8,30.44-100,60.2c-25.84,15.36-53,28.81-77.48,46.07-20.68,14.58-41.81,19.51-63.91,7.36C1235.82,969,1225.86,962,1215.61,955.46Z" transform="translate(0 62.35)"/>
      <path class="cls-18" d="M1215.61,955.46c10.25,6.49,20.21,13.51,30.83,19.35,22.1,12.15,43.23,7.22,63.91-7.36,24.48-17.26,51.64-30.71,77.48-46.07q50.16-29.82,100-60.2c4.26-2.61,7.35-7.14,11-10.78,3.82,15.21-11.64,14.75-17.76,21.88l-5.79,5.06-7.5,6c-4,.83-8.62.67-12,2.64-19.36,11.35-38.28,23.46-57.64,34.82-26.48,15.53-54.54,28.73-79.51,46.36-34.35,24.27-54.38,26.64-89.66,3.77l-15.4-13.62Z" transform="translate(0 62.35)"/>
      <path class="cls-19" d="M818.21,704.94l.66,2.73c3.64,5.42,6.09,12.69,11.14,15.93,25.08,16.12,50.8,31.28,76.47,46.48,2.35,1.39,8.28,8.5,7.93-2.28.13-12.47-.08-24.95.57-37.39.2-4,2.68-7.81,4.11-11.71a20.33,20.33,0,0,1,2.21-.14c-.08,8.51-.21,17-.21,25.53,0,10.82.12,21.63.19,32.45l4.31.22v-.12c2.2,3.29,3.77,7.44,6.75,9.69,6.34,4.78,13.41,8.58,20.18,12.77l0,4.44L939,796.82a7.56,7.56,0,0,1-2-.22l-20-11.16c-11-6.91-21.74-14.2-33-20.6-7.31-4.15-15.36-7-23.08-10.42L841.34,741l-8.09-4-5.91-4.41C816.72,725.91,809.55,718,818.21,704.94Z" transform="translate(0 62.35)"/>
      <path class="cls-20" d="M1290.46,433.84c14.38,5.21,29.2,8.5,41.9,15.6,28,15.62,54.85,33.16,82.17,49.93a2.28,2.28,0,0,1,.84.72q5.3,10.47,10.55,21c-7.28-.26-15.55,1.65-21.69-1.13-31.19-14.18-62.37-28.61-92.41-45-11.24-6.15-19.51-17.84-28.82-27.31-1.42-1.44-2.31-5.45-1.36-6.75C1283.6,438.12,1287,436.46,1290.46,433.84Zm-5.47,8.09c14.52,29.82,118,85.35,139,75.18C1409,488.61,1310.1,434.64,1285,441.93Z" transform="translate(0 62.35)"/>
      <path class="cls-6" d="M1597.78,754.56c-.45-6.88-1.48-13.78-1.2-20.64.42-10.3,1.77-20.58,2.72-30.86,9.33-2.76,19.29-4.88,18.08-18.13l12.73,20.49c-5.64,12.31-12.19,24.3-16.58,37.05C1610.61,750.92,1606.1,754.51,1597.78,754.56Z" transform="translate(0 62.35)"/>
      <path class="cls-6" d="M1666.17,803.88c-.71-10.25-1.5-20.5-2.11-30.75-.28-4.73-.2-9.47-.29-14.2,1.33-2.17,2.25-4.79,4.06-6.42,4.42-4,9.25-7.55,13.92-11.28q3.55,10,7.1,20.09c-2,10-3.26,20.28-6.43,29.91C1680.12,798.22,1677.35,807.15,1666.17,803.88Z" transform="translate(0 62.35)"/>
      <path class="cls-6" d="M1499.22,370.61q1-2.19,2.09-4.36l6.5-6.45,4.53,35.48c.59,1.45,1.18,2.89,1.76,4.34L1508,453.71C1498.52,426.7,1497.82,398.76,1499.22,370.61Z" transform="translate(0 62.35)"/>
      <path class="cls-21" d="M1541.09,317.21l29.36-13.78q1.26,4.33,2.5,8.67c-.92,1.37-2.92,3.11-2.6,4,5.94,17,1.89,24.71-15.84,29.71-18.32-6.21-18.3-6.2-13.25-25.32A11.05,11.05,0,0,0,1541.09,317.21Z" transform="translate(0 62.35)"/>
      <path class="cls-22" d="M1563.48,537.17c3.94,5.06,9.69,9.55,11.46,15.27,5.1,16.49,8.6,33.48,12.72,50.28-5.71-4.84-11.49-9.61-17.11-14.56-2.87-2.53-5.44-5.4-8.15-8.11l-.59-.23c.09-2.84.15-5.67.26-8.5Q1562.76,554.25,1563.48,537.17Z" transform="translate(0 62.35)"/>
      <path class="cls-23" d="M1475.26,877.34l5.78-5.06,13.56,11.32c8.81,23.15,7.07,27.29-17,40.95q-32.23,18.32-64.37,36.78c-2.14,1.23-3.79,3.3-5.66,5l-14.9,11.48-25.43,10.71c1.8-2.07,3.23-4.76,5.47-6.12,24.77-15.06,49.84-29.64,74.47-44.93,16.08-10,31.57-21,47.32-31.48-1.28-6.11-1-13.23-4.28-18S1480.4,880.78,1475.26,877.34Z" transform="translate(0 62.35)"/>
      <path class="cls-24" d="M907.68,639.8c2.11,4.1,3.34,9.11,6.48,12.16,13.48,13.12,27.51,25.68,41.24,38.34l24-36.46-22.64,44.34c-3.21-2.1-6.9-3.72-9.55-6.38-13.95-13.95-27.63-28.16-41.41-42.29Q906.73,644.67,907.68,639.8Z" transform="translate(0 62.35)"/>
      <path class="cls-25" d="M1597.78,754.56c8.32,0,12.83-3.64,15.75-12.09,4.39-12.75,10.94-24.74,16.58-37.05.84,1.11,2.64,2.66,2.37,3.25-7.24,15.79-14.42,31.62-22.57,46.93C1609.16,757,1602,755,1597.78,754.56Z" transform="translate(0 62.35)"/>
      <path class="cls-26" d="M1681.75,741.23c-4.67,3.73-9.5,7.28-13.92,11.28-1.81,1.63-2.73,4.25-4.06,6.42q-3.33-9-6.67-18.08c9,2,16.19-.23,20.62-8.87Z" transform="translate(0 62.35)"/>
      <path class="cls-27" d="M827.34,732.66l5.91,4.42c-9.07,5.48-16.64,11.75-12.76,24.09l34.17,24.26-2.49,2.27c-6.07-3.48-11.93-7.42-18.25-10.36-16.47-7.65-20.64-20.1-15.28-36.68Z" transform="translate(0 62.35)"/>
      <path class="cls-28" d="M1050.28,567.09q5.1,7.36,10.2,14.74l-28.1-10.58c-.13-3.1-.25-6.19-.38-9.29Z" transform="translate(0 62.35)"/>
      <path class="cls-29" d="M1624.28,567c4.34,10.32,8.24,20.86,13.26,30.84,1.61,3.21,6.17,4.93,9.38,7.34l-17.78,2.43Z" transform="translate(0 62.35)"/>
      <path class="cls-30" d="M1617.38,684.93c1.21,13.25-8.75,15.37-18.08,18.13l-6.09-8.45c13.1,1,16.5-7.47,17.69-18.1Z" transform="translate(0 62.35)"/>
      <path class="cls-31" d="M1666.17,803.88c11.18,3.27,13.95-5.66,16.25-12.65,3.17-9.63,4.38-19.91,6.43-29.91,6.75,16.08-.23,30.13-7.82,43.27C1678.38,809.17,1670.58,815.11,1666.17,803.88Z" transform="translate(0 62.35)"/>
      <path class="cls-32" d="M905.77,649.51c13.78,14.13,27.46,28.34,41.41,42.29,2.65,2.66,6.34,4.28,9.55,6.38.08.89.17,1.79.25,2.69l-6.51,4.27-2.37-6.59-44.52-48.68A16.39,16.39,0,0,1,905.77,649.51Z" transform="translate(0 62.35)"/>
      <path class="cls-33" d="M1566.11,229.81l-29.23.08Z" transform="translate(0 62.35)"/>
      <path class="cls-34" d="M1050.28,567.09,1032,562l9.74-6.27Z" transform="translate(0 62.35)"/>
      <path class="cls-35" d="M1365.51,895c-8.79-3.17-18.4-5-26.15-9.86-9-5.59-7.65-16.26,1.66-21.54,12.52-7.11,25.51-14.57,39.66-4.31,6.37,4.61,11.55,10.87,17.27,16.38-6.84,5.6-13.36,11.7-20.7,16.53-2.59,1.7-7.22.27-10.92.27Z" transform="translate(0 62.35)"/>
      <path class="cls-36" d="M1381,768.29c0,1.25,0,2.51.07,3.76l-127.48,17.82-2.4-2.23a80.27,80.27,0,0,1,8.39-2.08Q1320.29,776.86,1381,768.29Z" transform="translate(0 62.35)"/>
      <path class="cls-37" d="M1514.1,399.62c-.58-1.45-1.17-2.89-1.76-4.34,12.52,1.77,25,3.6,37.56,5.27,9.47,1.26,18.95,2.95,28.47,3.28,13.82.47,22.87-10.95,25.41-30.85.41-3.23.46-6.5.77-11.25l16.78,11c.2.77.39,1.55.59,2.32-7.17,29.52-3.13,58.71,1.28,88.17,1.44,9.65-2.43,20.09-3.88,30.17-1.57-2.1-3.13-4.21-4.7-6.32,0-15.93.05-31.87-.19-47.8-.06-4,.08-9-2.12-11.77-3.87-4.84-9-10.79-14.44-11.88-22.87-4.57-46.1-7.34-69.13-11.16C1523.73,403.68,1519,401.29,1514.1,399.62Z" transform="translate(0 62.35)"/>
      <path class="cls-38" d="M1563.48,537.17q-.7,17.07-1.41,34.15c-.11,2.83-.17,5.66-.26,8.5q0,8.8,0,17.62l-1.66.14c-3.69-21.52-7.39-43-11.39-66.3Z" transform="translate(0 62.35)"/>
      <path class="cls-39" d="M1621.92,375.09c-.2-.77-.39-1.55-.59-2.32l18.79-22.52c9.18,10.06,18.52,20,27.51,30.22,17.93,20.39,20.22,47.23,29.08,71.36,4.06,11,9,21.87,11.78,33.22,1.13,4.62-.8,12.39-4.21,15.05s-10.6,1.57-15.66.26c-2.88-.75-4.79-5.22-7.27-8.16l-7.84,3.68c-1.62-42.05-7.45-81.91-40.68-111.73Z" transform="translate(0 62.35)"/>
      <path class="cls-40" d="M1541.09,317.21a11.05,11.05,0,0,1,.17,3.32c-5,19.12-5.07,19.11,13.25,25.32-19,1.76-23.86-5.35-17.89-26.31Z" transform="translate(0 62.35)"/>
      <path class="cls-41" d="M1494.54,906c-15.75,10.52-31.24,21.48-47.32,31.48-24.63,15.29-49.7,29.87-74.47,44.93-2.24,1.36-3.67,4-5.47,6.12l-15.5,6.88-49,29.21c-19.15,5.65-38.12,9-55.84-4.23l-40.15-22.53L1191,986.32l29.57-15.74,8.43.34c35.28,22.87,55.31,20.5,89.66-3.77,25-17.63,53-30.83,79.51-46.36,19.36-11.36,38.28-23.47,57.64-34.82,3.36-2,8-1.81,12-2.64,5.49,3,11.55,5.37,16.28,9.3C1488.29,896.17,1491.09,901.46,1494.54,906Z" transform="translate(0 62.35)"/>
      <path class="cls-42" d="M1191,986.32l15.86,11.51c0,.69,0,1.39,0,2.08-20.52-12.23-41-24.6-61.6-36.66-24-14-48.2-27.54-72.1-41.64-34.68-20.48-69.2-41.23-103.73-62-25-15-49.85-30.15-74.77-45.23l2.54-2.26,6.35,2.34,7,4.78,57.76,33.14c5.67,4,11.1,8.41,17,11.92,25.91,15.28,52.13,30,77.94,45.49,38.4,23,76.55,46.39,114.8,69.61l4,2.75Z" transform="translate(0 62.35)"/>
      <path class="cls-43" d="M872,804.69c9.65,9.78,26,9.08,27.3,26.39C880.64,826.05,870.69,817.38,872,804.69Z" transform="translate(0 62.35)"/>
      <path class="cls-43" d="M909.45,829.33c9.08,7.33,25.65,6.43,25.5,23.53C925.43,846,909.2,846.88,909.45,829.33Z" transform="translate(0 62.35)"/>
      <path class="cls-44" d="M1392.71,977.79l14.9-11.48c7.3,6.8,6,12.57-2.21,17.32-4.3,2.47-8.75,4.66-15.93,8.46Z" transform="translate(0 62.35)"/>
      <path class="cls-45" d="M843.1,788.32c8.89,4,19.53,6.49,14.1,23q-9.18-9.45-18.34-18.91Z" transform="translate(0 62.35)"/>
      <path class="cls-46" d="M1247,1020.36c17.72,13.23,36.69,9.88,55.84,4.23l2.41,2c-20.62,9.94-40.85,9.36-60.68-2.23Z" transform="translate(0 62.35)"/>
      <path class="cls-47" d="M1305.22,1026.63l-2.41-2,49-29.21c-5.32,4.11-10.41,8.57-16,12.25C1325.75,1014.21,1315.42,1020.32,1305.22,1026.63Z" transform="translate(0 62.35)"/>
      <path class="cls-48" d="M897.12,812.16l-2.54,2.26L852.17,787.7l2.49-2.27Z" transform="translate(0 62.35)"/>
      <path class="cls-49" d="M1247,1020.36l-2.43,4-37.76-24.49c0-.69,0-1.39,0-2.08Z" transform="translate(0 62.35)"/>
      <path class="cls-24" d="M914.41,767.8c.35,10.78-5.58,3.67-7.93,2.28-25.67-15.2-51.39-30.36-76.47-46.48-5-3.24-7.5-10.51-11.14-15.93,14,9.27,27.83,18.82,42,27.74C878.58,746.48,896.57,757,914.41,767.8Z" transform="translate(0 62.35)"/>
      <path class="cls-50" d="M948.1,698.55l2.37,6.59L921.3,718.56a20.33,20.33,0,0,0-2.21.14c.44-2.12.2-5.49,1.44-6.17C929.55,707.57,938.87,703.15,948.1,698.55Z" transform="translate(0 62.35)"/>
      <path class="cls-51" d="M1507.81,359.8l-6.5,6.45-6.83-2,8.25-21.9,3.77.5Q1507.16,351.32,1507.81,359.8Z" transform="translate(0 62.35)"/>
      <path class="cls-9" d="M992.57,760.93c9.39-32.45,32.88-51.11,62.19-64.55,8.24-3.78,15.13-10.46,23.29-14.47,3.1-1.52,9.69-.8,11.9,1.54,17.79,18.79,34.91,38.21,52.23,57.44q3.35,11.19,6.67,22.38c-19.68,7.19-39.7,13.6-58.92,21.88-11.39,4.91-20.89,2.83-31.55-1.18C1036.64,775.78,1014.53,768.55,992.57,760.93Z" transform="translate(0 62.35)"/>
      <path class="cls-9" d="M1048.73,852.45c9.69-22.32,17-46.6,42.41-57,16.76-6.86,33.95-12.66,50.95-18.94,1.5,1.77,4,3.36,4.33,5.33,1.55,8.71,2.61,17.51,3.61,26.3q6.18,54.47,12.24,109l-2.29.07c-4.33-3.29-8.42-7-13-9.8q-43.93-26.64-88.14-52.8C1056,852.92,1052.11,853.11,1048.73,852.45Z" transform="translate(0 62.35)"/>
      <path class="cls-4" d="M1153.72,747.64q0-4.62.08-9.25c18-3.13,36.11-6,54-9.72,2.3-.47,3.74-5,5.58-7.73,2.56,2.13,5.58,6.47,7.61,6,14.85-3.12,29.51-7.19,44.22-11,23.08,10.55,45.91,21.67,69.33,31.4,10.71,4.45,22.57,6.16,33.91,9.11l8.13,4.84c-1.3.62-2.54,1.6-3.9,1.8-26,3.81-51.9,7.63-77.89,11.21-15.67,2.16-31.61,6.45-47.07,5.22-20.49-1.63-40.5-8.54-61-11.58-13.45-2-22.12-8.7-28.68-19.73C1157.63,747.49,1155.23,747.83,1153.72,747.64Z" transform="translate(0 62.35)"/>
      <path class="cls-4" d="M1162.27,917.1q-6.12-54.48-12.24-109c-1-8.79-2.06-17.59-3.61-26.3-.35-2-2.83-3.56-4.33-5.33l26.77-4.27c1.62.74,3.16,1.8,4.86,2.17,20.72,4.5,41.45,8.89,62.18,13.31a7.33,7.33,0,0,1,0,2c-12.8,22.44-25.51,44.94-38.45,67.31C1185.88,877.16,1174,897.1,1162.27,917.1Z" transform="translate(0 62.35)"/>
      <path class="cls-9" d="M977,765.48c26.77,9.34,53.65,18.38,80.16,28.4,3.26,1.23,4.55,7.7,6.76,11.75-9.21,12.15-18.41,24.31-28.27,37.33L925.59,776.64v.12Z" transform="translate(0 62.35)"/>
      <path class="cls-9" d="M963.91,694.15l24.35-42.39,9-.07L1071,663.05l6.22,8.81c-20,12.13-39.69,24.71-60.09,36.07-4.79,2.67-12.47,3.05-17.77,1.31C987.19,705.26,975.68,699.31,963.91,694.15Z" transform="translate(0 62.35)"/>
      <path class="cls-9" d="M921.3,718.56l29.17-13.42,6.51-4.27,40.27,19.75c-4.84,9.8-8.47,20.52-15,29.1-4.58,6.07-12.46,10.89-19.84,13.32-11.11,3.65-23.13,4.41-34.6,7.12-2.55.6-4.41,4.18-6.58,6.38-.07-10.82-.18-21.63-.19-32.45C921.09,735.58,921.22,727.07,921.3,718.56Z" transform="translate(0 62.35)"/>
      <path class="cls-52" d="M1153.72,747.64c1.51.19,3.91-.15,4.38.65,6.56,11,15.23,17.74,28.68,19.73,20.46,3,40.47,10,61,11.58,15.46,1.23,31.4-3.06,47.07-5.22,26-3.58,51.94-7.4,77.89-11.21,1.36-.2,2.6-1.18,3.9-1.8l7.71-.46,5.9,6.2-9.21,1.18q-60.72,8.61-121.42,17.27a80.27,80.27,0,0,0-8.39,2.08l-12.81-2.43-67.52-14.81Z" transform="translate(0 62.35)"/>
      <path class="cls-53" d="M1073,653.83c0,.8-.07,1.6-.1,2.4l-73.61-11,31.14-22.37,11.57-2.17,31.09,33.2Z" transform="translate(0 62.35)"/>
      <path class="cls-54" d="M992.57,760.93c22,7.62,44.07,14.85,65.81,23,10.66,4,20.16,6.09,31.55,1.18,19.22-8.28,39.24-14.69,58.92-21.88l8.77-2.16c-2.38,2.66-4.25,6.6-7.21,7.77-16.56,6.52-34,11-49.94,18.8-17.62,8.58-33.49,7.08-50.68-.42-15.94-7-32.82-11.73-49-18.1C997.46,767.86,995.27,763.74,992.57,760.93Z" transform="translate(0 62.35)"/>
      <path class="cls-9" d="M1093.09,669.55l-4.88-4.06,27.14,1.68,26.84,6.72c-2.26,2.39-6.46,4.77-6.46,7.16,0,11.05,1.17,22.1,1.92,33.14Z" transform="translate(0 62.35)"/>
      <path class="cls-54" d="M925.59,776.64,1035.66,843c9.86-13,19.06-25.18,28.27-37.33l-24.53,42c-1.45,0-3.24.68-4.3.06q-41.35-24.15-82.58-48.54c-6.77-4.19-13.84-8-20.18-12.77C929.36,784.08,927.79,779.93,925.59,776.64Z" transform="translate(0 62.35)"/>
      <path class="cls-54" d="M1093.09,669.55l44.56,44.64c7.63,6.23,15.46,17.85,22.86,17.59,17.74-.62,35.29-6.82,52.92-10.77l0-.07c-1.84,2.68-3.28,7.26-5.58,7.73-17.91,3.69-36,6.59-54,9.72-18.29-19.26-36.68-38.42-54.75-57.88C1096.31,677.56,1095,673.24,1093.09,669.55Z" transform="translate(0 62.35)"/>
      <path class="cls-52" d="M1048.73,852.45c3.38.66,7.26.47,10.06,2.12q44.24,26.1,88.14,52.8c4.63,2.8,8.72,6.51,13,9.8,1.59,1.61,3.17,3.23,4.76,4.85-4.2-1.14-8.9-1.42-12.51-3.55q-47.51-28.12-94.62-56.94C1054.11,859.39,1051.67,855.52,1048.73,852.45Z" transform="translate(0 62.35)"/>
      <path class="cls-35" d="M979,627.18c-11.14,7-21.93,14.78-33.6,20.8-5,2.57-11.86,1.55-17.88,2.17-.53-1.91-1-3.82-1.58-5.73,13.56-8.43,26.88-17.32,40.9-24.9,2.79-1.51,8.29,2,12.54,3.16C979.24,624.18,979.11,625.68,979,627.18Z" transform="translate(0 62.35)"/>
      <path class="cls-24" d="M963.91,694.15c11.77,5.16,23.28,11.11,35.43,15.09,5.3,1.74,13,1.36,17.77-1.31,20.4-11.36,40.12-23.94,60.09-36.07-1.14,2.44-1.61,5.94-3.53,7.15q-29.81,18.87-60.08,37c-2.54,1.52-6.7,2.69-9.12,1.67-12.57-5.31-24.9-11.23-37.1-17.36C965.63,699.42,965,696.26,963.91,694.15Z" transform="translate(0 62.35)"/>
      <path class="cls-55" d="M939,796.82l13.5,6.72L1035,850.25l69.5,44.26-.42.48c-4-1.72-8.18-3.22-12.1-5.18-11.38-5.71-22.68-11.6-34-17.42-11.73-8.1-23-17-35.28-24.13-26.86-15.53-54.26-30.13-81.43-45.11Q940.14,800,939,796.82Z" transform="translate(0 62.35)"/>
      <path class="cls-56" d="M1164.74,922c-1.59-1.62-3.17-3.24-4.76-4.85l2.29-.07c11.75-20,23.61-39.94,35.23-60,12.94-22.37,25.65-44.87,38.45-67.31-7.65,15.42-14.83,31.1-23.06,46.21C1197.16,864.83,1180.82,893.36,1164.74,922Z" transform="translate(0 62.35)"/>
      <path class="cls-57" d="M1042,620.71l-11.56,2.17-42.23,26-4.13-6c8.44-5,16.36-11.44,25.42-14.84,17-6.4,34.68-11.24,52.22-16.19,1.78-.5,4.61,2.72,7,4.21l-8.91,2.49Z" transform="translate(0 62.35)"/>
      <path class="cls-54" d="M1115.35,667.17l-27.14-1.68L1073,653.83l.09.08-20.13-29c3,3.13,5.94,6.43,9.16,9.36,11.33,10.31,18.31,28.59,36.73,26.52,11.84-1.33,23-8.8,34.46-13.51-.63,2.17-.58,5.17-2,6.36-5,4.16-10.56,7.7-15.9,11.47Z" transform="translate(0 62.35)"/>
      <path class="cls-55" d="M1229,970.92l-8.43-.34-4.61-7-6.82-4-78-44.43-9.52-7.32-6.18-4L1104.11,895l.42-.48q40.5,23.55,81,47.09c9.26,5.36,18.67,10.47,28,15.7Z" transform="translate(0 62.35)"/>
      <path class="cls-54" d="M921.28,776.54c2.17-2.2,4-5.78,6.58-6.38,11.47-2.71,23.49-3.47,34.6-7.12,7.38-2.43,15.26-7.25,19.84-13.32,6.48-8.58,10.11-19.3,15-29.1.08,3.6,1.49,7.93,0,10.69C991,743,983.84,754.14,977,765.48l-51.42,11.28Z" transform="translate(0 62.35)"/>
      <path class="cls-50" d="M999.25,645.25l73.61,11q-.94,3.42-1.88,6.82l-73.67-11.36Q998.27,648.48,999.25,645.25Z" transform="translate(0 62.35)"/>
      <path class="cls-58" d="M1035,850.25l-82.54-46.71,0-4.44q41.26,24.31,82.58,48.54c1.06.62,2.85,0,4.3-.06Z" transform="translate(0 62.35)"/>
      <path class="cls-59" d="M1170.86,770.4l67.52,14.81-2.48,2.52c-20.73-4.42-41.46-8.81-62.18-13.31-1.7-.37-3.24-1.43-4.86-2.17Z" transform="translate(0 62.35)"/>
      <path class="cls-60" d="M999.25,645.25q-1,3.22-1.94,6.44l-9,.07-.09-2.87,42.23-26Z" transform="translate(0 62.35)"/>
      <path class="cls-61" d="M1157.62,761.11l-8.77,2.16q-3.33-11.19-6.67-22.38Z" transform="translate(0 62.35)"/>
      <path class="cls-62" d="M1059.72,618.51l8.91-2.49q1-13.35,2.08-26.69l9.06,6.53L1095,609.18c-2.94,2.88-5.46,7.41-8.91,8.29-7.78,2-16,2.18-24.08,3.1Z" transform="translate(0 62.35)"/>
      <path class="cls-63" d="M1079.77,595.86l-9.06-6.53-4.38-4.73,2-2c7.5,6.21,15.42,9.92,25,4.3-.25,3.72-.49,7.44-.74,11.16Z" transform="translate(0 62.35)"/>
      <path class="cls-3" d="M1417.86,650.16c-18.83-7-38.14-12.87-56.38-21.13-32.74-14.83-65.76-29.46-96.94-47.21C1237,566.15,1211.36,547,1185.84,528c-10.23-7.59-18.14-18.42-26.55-28.25-2-2.39-3.34-9.18-2.5-9.67,4.51-2.61,10.17-6,14.76-5.19a253.38,253.38,0,0,1,40.74,10.26C1265,513.76,1313,541.9,1360,571.46c20.21,12.71,38.26,28.92,56.84,44.1a51.83,51.83,0,0,1,12.36,15.54C1436,643.84,1433.43,647.45,1417.86,650.16Z" transform="translate(0 62.35)"/>
      <path class="cls-3" d="M1049.08,551.66c-1.49-2.61-4.62-7.16-4.2-7.52,3.78-3.2,8.24-8,12.39-7.91,11.35.31,23.31.92,33.83,4.74,35.33,12.79,70.61,25.94,105,41.07,28.11,12.38,56,25.93,82,42.25,39.29,24.74,77.73,51.11,114.63,79.28,16.86,12.87,29.66,31.28,43.37,47.95,6.43,7.82.23,13.2-7.34,13.4-8.3.21-16.68-2.44-25-3.85-1.63-2.17-2.81-5.06-5-6.39-22.13-13.71-44.18-27.56-66.79-40.45-6.63-3.78-15-4.6-22.49-6.77,3.49-1.24,7.36-1.9,10.33-3.9,2.18-1.46,3.18-4.67,4.71-7.1-10-6.75-19.65-14-30-20.14-21.63-13-43.59-25.36-65.42-38l-9.75-2.41-1.08-8.93-91.87-55.38c-3.45,0-7-.49-10.31.17-4,.8-7.9,2.59-11.84,4,3.16-4.08,13.35-6.73,2.8-13.63C1089.71,547.69,1070.27,544.81,1049.08,551.66Z" transform="translate(0 62.35)"/>
      <path class="cls-4" d="M1309.46,707.46c7.54,2.17,15.86,3,22.49,6.77,22.61,12.89,44.66,26.74,66.79,40.45,2.14,1.33,3.32,4.22,5,6.39l-19.38-.16-7.71.46-8.13-4.84c-12-5.3-24.11-10.54-36.12-15.93q-29.34-13.17-58.62-26.48Z" transform="translate(0 62.35)"/>
      <path class="cls-9" d="M1049.08,551.66c21.19-6.85,40.63-4,58,10.45-8.47,17.66-23.29,22.79-40.45,14a2.81,2.81,0,0,0-1.09,0Z" transform="translate(0 62.35)"/>
      <path class="cls-64" d="M1065.53,576.07a2.81,2.81,0,0,1,1.09,0c17.16,8.78,32,3.65,40.45-14,10.55,6.9.36,9.55-2.8,13.63l-11,11.16c-9.54,5.62-17.46,1.91-25-4.3Z" transform="translate(0 62.35)"/>
      <path class="cls-65" d="M1494.54,906c-3.45-4.51-6.25-9.8-10.51-13.34-4.73-3.93-10.79-6.26-16.28-9.3l7.5-6c5.15,3.44,11.83,5.84,15,10.59S1493.26,899.86,1494.54,906Z" transform="translate(0 62.35)"/>
      <path class="cls-41" d="M897.12,812.16l-42.46-26.73-34.17-24.26L841.34,741l19.59,13.38c.81,3.25.69,7.31,2.66,9.53,2.75,3.1,7,4.81,10.69,7.12L900,783.31l17,2.13,20,11.16-33.51,17.9Z" transform="translate(0 62.35)"/>
      <path class="cls-66" d="M917,785.44l-17-2.13-25.76-12.25c-3.64-2.31-7.94-4-10.69-7.12-2-2.22-1.85-6.28-2.66-9.53,7.72,3.44,15.77,6.28,23.08,10.43C895.29,771.24,906.05,778.53,917,785.44Z" transform="translate(0 62.35)"/>
      <path class="cls-67" d="M903.47,814.5,937,796.6a7.56,7.56,0,0,0,2,.22q1.14,3.16,2.3,6.33l-30.85,16.13Z" transform="translate(0 62.35)"/>
      <path class="cls-68" d="M841.34,741l-20.85,20.14c-3.88-12.34,3.69-18.61,12.76-24.09Z" transform="translate(0 62.35)"/>
      <path class="cls-3" d="M1285,441.93c25.11-7.29,124,46.68,139,75.18C1403,527.28,1299.51,471.75,1285,441.93Z" transform="translate(0 62.35)"/>
      <path class="cls-69" d="M1215.92,963.55l4.61,7L1191,986.32l-8.93-4.13Z" transform="translate(0 62.35)"/>
      <path class="cls-70" d="M1131.13,915.08l78,44.43L1178,979.44c-38.25-23.22-76.4-46.63-114.8-69.61-25.81-15.45-52-30.21-77.94-45.49-6-3.51-11.38-7.92-17-11.92l.75-.52c3.73-1,8-1.18,11.1-3.14,7.93-5,14.77-6.29,23.26-.21,13.47,9.64,27.89,17.92,41.81,26.92,1.39.9,2.11,2.82,3.14,4.27-9.36,6.12-6.89,12.07.79,17,8,5.22,17.29,8.81,24.79,14.67C1095,928,1108.78,929.25,1131.13,915.08Z" transform="translate(0 62.35)"/>
      <path class="cls-70" d="M910.44,819.28l30.85-16.13c27.17,15,54.57,29.58,81.43,45.11,12.3,7.11,23.55,16,35.28,24.13l-5.15,3.59a2.26,2.26,0,0,1-1.75.66c-9.87-6.86-20.5-12.86-29.46-20.76-20.21-17.81-29.89-19-52.69-4l-.75.52Z" transform="translate(0 62.35)"/>
      <path class="cls-71" d="M1178,979.44l31.11-19.93,6.82,4L1182,982.19Z" transform="translate(0 62.35)"/>
      <path class="cls-72" d="M1273.73,714.12q29.31,13.25,58.62,26.48c12,5.39,24.08,10.63,36.12,15.93-11.34-2.95-23.2-4.66-33.91-9.11-23.42-9.73-46.25-20.85-69.33-31.4l-2.76-1.66-2.41-2.31,2.58-1.72a.82.82,0,0,0,0-1.06Z" transform="translate(0 62.35)"/>
      <path class="cls-73" d="M1262.47,714.36l2.76,1.66c-14.71,3.77-29.37,7.84-44.22,11-2,.43-5-3.91-7.61-6l0,.07q-4.41-14.78-8.81-29.54l15.67,31.35Z" transform="translate(0 62.35)"/>
      <path class="cls-74" d="M1059.72,618.51l2.27,2.06-9.07,4.36,20.13,29L1042,620.71Z" transform="translate(0 62.35)"/>
      <path class="cls-4" d="M1204.62,691.47q4.41,14.76,8.81,29.54c-17.63,4-35.18,10.15-52.92,10.77-7.4.26-15.23-11.36-22.86-17.59-.75-11-1.92-22.09-1.92-33.14,0-2.39,4.2-4.77,6.46-7.16q29,3.32,57.94,6.63Z" transform="translate(0 62.35)"/>
      <path class="cls-75" d="M1200.13,680.51l-57.94-6.62-26.84-6.72c0-.68,0-1.36,0-2l78.38,10.9,6.35,3.11A7.82,7.82,0,0,0,1200.13,680.51Z" transform="translate(0 62.35)"/>
      <path class="cls-76" d="M1052.85,876l5.15-3.58c11.33,5.82,22.63,11.71,34,17.42,3.92,2,8.06,3.46,12.1,5.18l11.32,8.81c-14.31,6.54-56.14-9.16-62.3-23.47C1052.59,879.07,1052.92,877.43,1052.85,876Z" transform="translate(0 62.35)"/>
      <path class="cls-9" d="M1052.92,624.93l9.07-4.36c8.06-.92,16.3-1.1,24.08-3.1,3.45-.88,6-5.41,8.91-8.29l2.65,2.31c1.09,3,1.3,7.06,3.42,8.78,9.7,7.84,19.94,15,30,22.43q1.13,2.31,2.24,4.6c-11.46,4.71-22.62,12.18-34.46,13.51-18.42,2.07-25.4-16.21-36.73-26.52C1058.86,631.36,1056,628.06,1052.92,624.93Z" transform="translate(0 62.35)"/>
      <path class="cls-4" d="M1133.27,647.3q-1.11-2.29-2.24-4.59l8.88.12,53.83,33.2-78.38-10.9c5.33-3.77,10.87-7.31,15.89-11.47C1132.69,652.47,1132.64,649.47,1133.27,647.3Z" transform="translate(0 62.35)"/>
      <path class="cls-77" d="M1131.13,915.08c-22.35,14.17-36.14,12.93-57.29-3.62-7.5-5.86-16.74-9.45-24.79-14.67-7.68-5-10.15-10.93-.78-17a1.79,1.79,0,0,0,.78,1.52c7.75,20.43,30.08,21.56,44.73,32.94,8.32,6.46,19.62.81,27.83-6.44Z" transform="translate(0 62.35)"/>
      <path class="cls-78" d="M1121.61,907.76c-8.21,7.25-19.51,12.9-27.83,6.44-14.65-11.38-37-12.51-44.73-32.93.68-1.54,1.37-3.08,2-4.63a2.26,2.26,0,0,0,1.75-.66c.07,1.45-.26,3.09.28,4.35,6.16,14.31,48,30,62.3,23.47Z" transform="translate(0 62.35)"/>
      <path class="cls-79" d="M1097.63,611.49l-2.65-2.31-15.21-13.32,12.76,2.2,20.76,20.11-2.35,2.07Z" transform="translate(0 62.35)"/>
      <path class="cls-9" d="M1113.29,618.17l-20.76-20.11c.25-3.72.49-7.44.74-11.16l11-11.16c3.94-1.36,7.79-3.15,11.84-4,3.32-.66,6.86-.16,10.31-.17-1.16,3.46-3.55,7-3.27,10.37,1.26,15.21,3.27,30.35,5,45.52Z" transform="translate(0 62.35)"/>
      <path class="cls-4" d="M1229.12,638.34c21.83,12.62,43.79,25,65.42,38,10.31,6.17,20,13.39,30,20.14l-61.89,12.81a.82.82,0,0,1,0,1.06c-25-14.25-50.1-28.31-74.94-42.83-11.77-6.88-23-14.63-34.53-22l22.32-2.74Z" transform="translate(0 62.35)"/>
      <path class="cls-4" d="M1128.16,627.51c-1.74-15.17-3.75-30.31-5-45.52-.28-3.34,2.11-6.91,3.27-10.37L1218.29,627c-4.71.81-9.42,1.58-14.12,2.45q-29.94,5.55-59.86,11.15L1135.7,636Z" transform="translate(0 62.35)"/>
      <path class="cls-80" d="M1144.31,640.6q29.93-5.58,59.86-11.15c4.7-.87,9.41-1.64,14.12-2.45l1.08,8.93-43.88,6.85-22.32,2.74Z" transform="translate(0 62.35)"/>
      <path class="cls-81" d="M1262.61,709.27l61.89-12.81c-1.53,2.43-2.53,5.64-4.71,7.1-3,2-6.84,2.66-10.33,3.9l-35.73,6.66Z" transform="translate(0 62.35)"/>
      <path class="cls-82" d="M1175.49,642.78l43.88-6.85,9.75,2.41Z" transform="translate(0 62.35)"/>
      <path class="cls-83" d="M874.28,771.06,900,783.31Z" transform="translate(0 62.35)"/>
      <path class="cls-84" d="M1051.1,876.64c-.68,1.55-1.37,3.09-2,4.63a1.82,1.82,0,0,1-.78-1.53c-1-1.45-1.76-3.37-3.15-4.27-13.92-9-28.34-17.28-41.81-26.92-8.49-6.08-15.33-4.78-23.26.21-3.13,2-7.37,2.14-11.1,3.14,22.8-15,32.48-13.83,52.69,4C1030.6,863.78,1041.23,869.78,1051.1,876.64Z" transform="translate(0 62.35)"/>
      <path class="cls-85" d="M1144.31,640.6l8.86,4.92c11.49,7.35,22.76,15.1,34.53,22,24.84,14.52,49.94,28.58,74.94,42.83l-2.58,1.72-8.53-2.71-42.37-24.4-9.07-5.8-6.35-3.11-53.83-33.2-6.62-4.94,2.41-1.92Z" transform="translate(0 62.35)"/>
      <path class="cls-86" d="M1251.53,709.34l8.53,2.71,2.41,2.31-42.18,8.46,4.45-6.27Z" transform="translate(0 62.35)"/>
      <path class="cls-87" d="M1224.74,716.55l-4.45,6.27-15.67-31.35-4.49-11a8,8,0,0,1,0-1.38l9.07,5.8Q1216.94,700.75,1224.74,716.55Z" transform="translate(0 62.35)"/>
      <path class="cls-88" d="M1133.29,637.89l6.62,4.94-8.88-.12c-10-7.42-20.28-14.6-30-22.44-2.12-1.72-2.33-5.79-3.42-8.78l13.31,8.75Z" transform="translate(0 62.35)"/>
      <path class="cls-89" d="M1133.29,637.89l-22.35-17.65,2.35-2.07,14.87,9.34,7.54,8.46Z" transform="translate(0 62.35)"/>
      <path class="cls-4" d="M1224.74,716.55q-7.79-15.79-15.58-31.61l42.37,24.4Z" transform="translate(0 62.35)"/>
    </g>
    <g>
      <path class="cls-90" d="M701.18,923C593,867.75,371.86,800.44,251.66,740.35S0,483.14,0,483.14v607.07H933.62l-28.11-18.13C831,1024,809.35,978.33,701.18,923Z" transform="translate(0 62.35)"/>
      <path class="cls-91" d="M1633,168c26.44,88.51,78.26,164,148,209.94s85.2,85.11,210.2,85.11a216.27,216.27,0,0,0,28.93-1.93V-8.17H1654.63S1606.55,79.49,1633,168Z" transform="translate(0 62.35)"/>
    </g>
  </g>
</svg>
