<svg id="Layer_1" data-name="Layer 1" xmlns="http://www.w3.org/2000/svg" xmlns:xlink="http://www.w3.org/1999/xlink" viewBox="0 0 2200 1185" preserveAspectRatio="none">
  <defs>
    <style>
      .cls-1 {
        fill: none;
      }

      .cls-2 {
        clip-path: url(#clip-path);
      }

      .cls-3 {
        fill: #212020;
      }
    </style>
    <clipPath id="clip-path" transform="translate(236.48 -255.84)">
      <rect class="cls-1" width="1920" height="1080"/>
    </clipPath>
  </defs>
  <title>footer</title>
  <g class="cls-2">
    <path class="cls-3" d="M1939,350c-5.17-7.74,4.34-16.25-2-23-43.61-46.41-122.72-60.14-184-68-122.76-15.74-252.29,28.4-345.66,107.63-34.78,29.51-66.58,62.41-101.63,91.59-68.94,57.37-149.74,99.38-234.62,127.65-157.64,52.5-332.72,51.65-486.66-10.3-77.23-31.08-153.58-76.43-235.68-92.2C264.21,467.13,178.74,474.59,97,501c-3,.95-266.07,77-269,78-93.05,32.57,135.56-29.38,71,42-146.49,162-172.06,437.93-87,624,277.88,607.88,1918,653.26,2244,95,78.63-134.67,91.6-323,94-375,.87-18.87-7.13-39.75-12.23-57.55-10.81-37.82-23.45-75.12-36.38-112.25-36.74-105.44-74-213.27-120.69-314.77C1960.17,435.78,1967,391.9,1939,350Z" transform="translate(236.48 -255.84)"/>
  </g>
</svg>
