<svg id="Layer_1" data-name="Layer 1" xmlns="http://www.w3.org/2000/svg" xmlns:xlink="http://www.w3.org/1999/xlink" viewBox="0 0 2020 1185" preserveAspectRatio="none">
  <defs>
    <style>
      .cls-1 {
        fill: none;
      }

      .cls-2 {
        clip-path: url(#clip-path);
      }

      .cls-3 {
        fill: #fefefe;
      }

      .cls-4 {
        fill: #5d5d90;
      }

      .cls-5 {
        fill: #6ba5f5;
      }

      .cls-6 {
        fill: #fe648a;
      }

      .cls-7 {
        fill: #c4c9d7;
      }

      .cls-8 {
        fill: #d7e2f1;
      }

      .cls-9 {
        fill: #4a4982;
      }

      .cls-10 {
        fill: #d7e2f0;
      }

      .cls-11 {
        fill: #5fa592;
      }

      .cls-12 {
        fill: #fe4878;
      }

      .cls-13 {
        fill: #febac3;
      }

      .cls-14 {
        fill: #febac4;
      }

      .cls-15 {
        fill: #f1f1f2;
      }

      .cls-16 {
        fill: #403456;
      }

      .cls-17 {
        fill: #f0f0f1;
      }

      .cls-18 {
        fill: #372e60;
      }

      .cls-19 {
        fill: #5b9e8f;
      }

      .cls-20 {
        fill: #383162;
      }

      .cls-21 {
        fill: #599c8d;
      }

      .cls-22 {
        fill: #f0f0f2;
      }

      .cls-23 {
        fill: #fe658a;
      }

      .cls-24 {
        fill: #fe6489;
      }

      .cls-25 {
        fill: #fc4878;
      }

      .cls-26 {
        fill: #feadb9;
      }

      .cls-27 {
        fill: #e9eaed;
      }

      .cls-28 {
        fill: #383161;
      }

      .cls-29 {
        fill: #aab4c3;
      }

      .cls-30 {
        fill: #eaeaee;
      }

      .cls-31 {
        fill: #fabac5;
      }

      .cls-32 {
        fill: #fa658c;
      }

      .cls-33 {
        fill: #f9b9c4;
      }

      .cls-34 {
        fill: #56838a;
      }

      .cls-35 {
        fill: #b6b3c3;
      }

      .cls-36 {
        fill: #3c3767;
      }

      .cls-37 {
        fill: #312449;
      }

      .cls-38 {
        fill: #4c4a83;
      }

      .cls-39 {
        fill: #3f7b74;
      }

      .cls-40 {
        fill: #3a3874;
      }

      .cls-41 {
        fill: #5d9790;
      }

      .cls-42 {
        fill: #c1cedf;
      }

      .cls-43 {
        fill: #5f8edc;
      }

      .cls-44 {
        fill: #feb8c2;
      }

      .cls-45 {
        fill: #fdecef;
      }

      .cls-46 {
        fill: #343760;
      }

      .cls-47 {
        fill: #eeedf0;
      }

      .cls-48 {
        fill: #ebecef;
      }

      .cls-49 {
        fill: #e4e7ec;
      }

      .cls-50 {
        fill: #211149;
      }

      .cls-51 {
        fill: #9ba0b4;
      }

      .cls-52 {
        fill: #eaeaed;
      }

      .cls-53 {
        fill: #ebebee;
      }

      .cls-54 {
        fill: #393162;
      }

      .cls-55 {
        fill: #3a3564;
      }

      .cls-56 {
        fill: #cad8e8;
      }

      .cls-57 {
        fill: #4a4882;
      }

      .cls-58 {
        fill: #397570;
      }

      .cls-59 {
        fill: #393262;
      }

      .cls-60 {
        fill: #3d3968;
      }

      .cls-61 {
        fill: #3a3463;
      }

      .cls-62 {
        fill: #5a998d;
      }

      .cls-63 {
        fill: #5b878d;
      }

      .cls-64 {
        fill: #588a8b;
      }

      .cls-65 {
        fill: #5c5d8f;
      }

      .cls-66 {
        fill: #5ea191;
      }

      .cls-67 {
        fill: #393465;
      }

      .cls-68 {
        fill: #eaeeef;
      }

      .cls-69 {
        fill: #e2e2e8;
      }

      .cls-70 {
        fill: #36305f;
      }

      .cls-71 {
        fill: #33355f;
      }

      .cls-72 {
        fill: #20214a;
      }

      .cls-73 {
        fill: #a0a1b4;
      }

      .cls-74 {
        fill: #9ea0b3;
      }

      .cls-75 {
        fill: #9fa1b3;
      }

      .cls-76 {
        fill: #84c5ac;
      }

      .cls-77 {
        fill: #6aa291;
      }

      .cls-78 {
        fill: #5c8d8e;
      }

      .cls-79 {
        fill: #5a928e;
      }

      .cls-80 {
        fill: #4d4980;
      }

      .cls-81 {
        fill: #302961;
      }

      .cls-82 {
        fill: #f6cd21;
      }

      .cls-83 {
        fill: #d5dae0;
      }

      .cls-84 {
        fill: #393463;
      }

      .cls-85 {
        fill: #bab9cc;
      }

      .cls-86 {
        fill: #e6e5eb;
      }

      .cls-87 {
        fill: #608982;
      }

      .cls-88 {
        fill: #43426f;
      }

      .cls-89 {
        fill: #353061;
      }

      .cls-90 {
        fill: url(#linear-gradient);
      }

      .cls-91 {
        fill: url(#linear-gradient-2);
      }
    </style>
    <clipPath id="clip-path" transform="translate(100.1 71.8)">
      <rect class="cls-1" x="1" width="1920" height="1080"/>
    </clipPath>
    <linearGradient id="linear-gradient" x1="-161.07" y1="732.77" x2="558.9" y2="1284.17" gradientUnits="userSpaceOnUse">
      <stop offset="0.19" stop-color="#4a4982"/>
      <stop offset="0.73" stop-color="#56558b"/>
      <stop offset="1" stop-color="#5d5d90"/>
    </linearGradient>
    <linearGradient id="linear-gradient-2" x1="1685.64" y1="326.91" x2="2024.91" y2="11.49" xlink:href="#linear-gradient"/>
  </defs>
  <title>landing</title>
  <g class="cls-2">
    <g>
      <path class="cls-3" d="M669.46,1297.59V-7.11H2284.71v1304.7ZM1213.2,573.2q.15,5.2.32,10.4c-5.64-.59-12.16-3.28-16.74-1.36-9.67,4-18.34,10.5-27.41,16q-2.7,8.65-5.39,17.33c-.42-2.49-.84-5-1.58-9.4l-61.61,39.43c-.57,2.93-1.15,5.85-1.72,8.78a14.73,14.73,0,0,0-2,.32c-3.43,0-7.62-1.31-10.16.19-17.82,10.46-35.62,21-52.72,32.59-6.48,4.38-14.6,8.92-14.29,19-6.37,12.56-4.77,17.82,8.25,27.09l-7.86,7.25c-18.14,16.72-13.55,36.52,3.52,48.19,10.47,7.16,21.4,13.64,32.17,20.36q45,28.1,90.14,56.14,45.51,28.32,91,56.61t90.93,56.53c19.29,12,38.85,23.54,57.91,35.88,31.12,20.15,61.75,22.82,93.76,1.29,24.9-16.74,50.85-31.95,76.5-47.56,24.26-14.76,49-28.83,73.08-43.83,20.91-13,21.42-37.69,2-50.37l-12.9-8.27,10.8-10,5.9-11.74a4.64,4.64,0,0,0,.4-1.91c3.21-9.39,2.62-17.71-6.67-23.54-14.11-8.84-28.19-17.73-42.37-26.45q-11.14-6.86-22.6-13.18c-8.23-4.56-16.61-8.84-24.91-13.25l1.45-2.53,8.23-3.9c1.75,2.46,3,6.17,5.33,7.17,8.55,3.62,24.13.79,27.19-5,4.88-9.17-.72-16.63-5.25-24.05a13.33,13.33,0,0,0-1.27-1.56c-26.13-31.86-59.38-55.53-92.48-79.17-17.59-12.56-36.61-23.14-55.21-34.25-8.62-5.16-17.72-9.53-26.66-14.14-24-12.38-47.55-25.68-72.14-36.72-18.23-8.19-37.58-14.18-56.84-19.71-12.21-3.51-25.11-5.23-37.81-6.15-9.44-.69-13.93,6.86-11.53,16.15.45,1.77,0,3.77,0,5.67Zm573.23,224.71c4.42,6.49,10.83,6.91,15-.75,6.24-11.59,11.72-24,5.57-37.75l-6.41-18.12-3.66-8.36c-.76-3.55-1-7.33-2.39-10.6-7.38-17.19-15.66-34-22.46-51.42-7-17.89-18.77-34.18-19.08-54.43l16.09-2.19,23.64-4.74c25-10.32,51.67-17.43,69.56-34.47-10-30.1-18.85-58.08-28.47-85.82-7.67-22.11-14.38-44.85-25-65.54-8.2-16-20.49-30.54-33.2-43.54-20.17-20.63-43.53-37-73.41-40.9l-2.31-7.63,11.9-16.24c15.09-23.88,8.53-45-15.74-50.63-8.85-3.72-17.7-7.42-26.48.16-3.76,1-7.54,2-11.29,3.05-12.16,3.52-13.94,7.61-8.49,19.32-4.41,18.25-7.2,36.32,6,52.58l-.29-.13c-6.36,1.35-15.11.56-18.62,4.48-8.5,9.47-14.56,21.12-21.6,31.9-11.31,21.14-21.52,43.18-45.41,53.75-2.65,1.17-4.68,3.67-7.23,5.15-10.58,6.13-19.27,20.3-34.43,6.92-2.3-2-10.81-.06-13.89,2.8-2.43,2.26-2.32,9.21-1,13.27,6.49,19.25,27.12,15.39,39.46,25.34l1.84-1.85c-.85-2.89-1.7-5.78-2.64-9,15.43-10,31-19.73,46.13-30.19a64,64,0,0,0,14.52-14.39c8.06-10.93,15.3-22.47,22.87-33.76-1.4,26.79-.35,53.33,7.9,79.16-1,10.82-5.15,21.87,2.28,32.1,4.4,36.57,9,73.12,13.12,109.71,2,17.48,6,33.63,22.33,43.67,1.31.8,1.82,2.79,3,3.92q18.11,17.25,36.32,34.4l5.53,7.65c-.86,10-2,19.9-2.46,29.88-.26,6.2.64,12.45,1,18.67,6,5.34,11.8,4.43,15.93-4,5.54-11.26,10.11-23,14.6-34.75.81-2.12-.75-5.14-1.22-7.75l-9.42-14.53-8-11.58c-11.06-13.34-21.88-26.89-33.26-40-5.94-6.82-9.94-13.7-9.41-23.22.53-9.35-.26-18.77-.47-28.16,2.71,3.2,5.23,6.6,8.19,9.56,4.49,4.51,9.29,8.72,14,13.06,6.43,16.73,12.43,33.65,19.45,50.14,4.29,10.08,10,19.58,15.34,29.2,9.21,16.58,18.64,33.05,28,49.57q3,8.17,6,16.33c-.37,7.92-1.25,15.85-1,23.74C1783.55,786.69,1785.34,792.29,1786.43,797.91ZM1337.66,499c-1.35,0-2.69,0-4,0-11.88.17-14.93,4.59-9.25,14.82,3.85,6.93,8,14.42,13.9,19.34,21.22,17.59,42.33,35.59,65.25,50.77,23.35,15.47,48.75,27.86,73.34,41.46,5.53,3.06,11.46,5.38,17.05,8.35A203.89,203.89,0,0,0,1565.18,656c11.64,1.43,17.43-8.45,10.4-17.44-9.74-12.46-19.74-25.58-32.28-34.79-29-21.3-59.15-41-89.64-60.14-14.4-9-31.08-14.33-45.93-22.73C1385.81,508.53,1362.39,501.9,1337.66,499Zm220.49,39.91c5-1.8,10.59-2.36,11.12-4.3.84-3.06-1.09-7.38-2.91-10.56-2.11-3.69-4.84-7.45-8.22-9.93-23.36-17.13-46.75-34.29-73.88-45.3-11.33-4.6-22.5-9.7-34.1-13.41-3.08-1-8.09,1.61-11.07,4-1.19.95-.4,6.91,1.38,8.64,9.78,9.45,19.49,19.22,30.47,27.13a311.56,311.56,0,0,0,42.56,26.11C1528,528.53,1543.69,533.34,1558.15,538.94Z" transform="translate(100.1 71.8)"/>
      <path class="cls-4" d="M1539,765.68c8.32,4.41,16.7,8.69,24.93,13.25q11.43,6.35,22.6,13.18c14.18,8.72,28.26,17.61,42.37,26.45,9.29,5.83,9.88,14.15,6.67,23.54a27.35,27.35,0,0,0-1.89-2.27c-12.66,8.51-25,17.52-37.88,25.66-30.72,19.41-61.68,38.44-92.59,57.55-13.07,8.08-27.1,14.86-39.21,24.17-20.85,16-45.44,15.7-66.56.15-17.85-13.16-37.69-23.61-56.66-35.26.19-2.4-.37-5.21.67-7.15,18.91-35.26,37.88-70.49,57.22-105.52,2.54-4.6,7.2-8,10.87-12,4.3-.43,8.63-.63,12.88-1.31,22.48-3.57,45-7.1,67.41-11,13.59-2.33,27.09-5.23,40.63-7.88Zm-24.78,118c.13-.56.27-1.11.41-1.66,3.68,0,7.58.78,11-.16,8.28-2.26,17.4-6.05,17.72-15.29.18-5-5.67-12.51-10.7-14.89-12.5-5.92-25.9-5.64-38.56,1.29-10.93,6-11.64,18.63-.6,24.46C1499.74,880.71,1507.26,881.64,1514.21,883.65Z" transform="translate(100.1 71.8)"/>
      <path class="cls-5" d="M1778.26,741c-9.34-16.52-18.77-33-28-49.57-5.34-9.62-11-19.12-15.34-29.2-7-16.49-13-33.41-19.45-50.14-3.73-15.82-8-31.53-10.94-47.49-1.32-7.07-4.06-11.56-10.74-13.71l-13.54-7.48c3.82,23.7,7.11,44.12,10.63,65.93.88-7.49,1.61-13.59,2.33-19.69l.1-.18c.22,9.39,1,18.81.48,28.16-.53,9.52,3.47,16.4,9.41,23.22,11.38,13.06,22.2,26.61,33.26,40-1.89,13.56-3.93,15.65-16,16.36q-18.18-17.19-36.33-34.4c-1.18-1.13-1.69-3.12-3-3.92-16.37-10-20.34-26.19-22.33-43.67-4.16-36.59-8.72-73.14-13.12-109.71,4.87,2,9.58,5.09,14.63,5.79,22.57,3.13,44.4-1.58,66.14-7.11,4.24-1.08,8.91-.45,13.39-.6l4.24,5.72,4.47,70.55q2.19,18.36,4.39,36.71c.3,20.25,12.08,36.54,19.07,54.43,6.8,17.41,15.08,34.23,22.46,51.42,1.4,3.27,1.63,7,2.39,10.6C1792.9,740.76,1786.39,742.74,1778.26,741Z" transform="translate(100.1 71.8)"/>
      <path class="cls-6" d="M1702.19,339.28c29.88,3.88,53.24,20.27,73.41,40.9,12.71,13,25,27.51,33.2,43.54,10.59,20.69,17.3,43.43,25,65.54,9.62,27.74,18.52,55.72,28.47,85.82-17.89,17-44.56,24.15-69.56,34.47-.13-2.38.39-5-.48-7.08-10.59-25.19-21.51-50.24-32-75.49-1.22-3-.43-6.9-.1-10.34.69-7.32,2.8-14.69,2.28-21.89-.64-8.88-3.17-17.65-5.25-26.37-4.78-19.95-8-39.87-.86-60,10.13,7.93,18.77,16.88,22.21,29.89,6.11,23.09,19.89,44.79,12.58,70.31-.16.56,1,1.51,1.92,2.71l7.5-3.18c1.92,2.57,3.51,4.72,5.12,6.83,4.52,5.93,9.9,5,14.93,1.21,4.87-3.63,7.13-8.15,4.59-14.82-5.2-13.66-10.42-27.41-14.16-41.51-7.47-28.13-16.66-55-40.28-74.32-3.16-2.59-5.26-6.49-7.84-9.78-7.19-6-14.33-12-21.57-17.88-4.51-3.67-8.15-3.5-13,.81-13.34,11.89-29.28,19.05-47.67,22.95l9.08,17.09c-.79.92-1.59,1.83-2.39,2.75l-16.17-10.67c-7.47,7.22-9.23,7.53-16.79,1.52l13.37-14.27c-13.47-12.79-16.41-22.4-12.28-38.3l.29.13,13.58,6.09c-5.51,19.88-1.69,26.73,14.49,26.06,14.43-2.78,21.34-11.33,18.34-22.7C1703.67,346,1694.72,342.62,1702.19,339.28Z" transform="translate(100.1 71.8)"/>
      <path class="cls-7" d="M1631.36,874c19.42,12.68,18.91,37.36-2,50.37-24.12,15-48.82,29.07-73.08,43.83-25.65,15.61-51.6,30.82-76.5,47.56-32,21.53-62.64,18.86-93.76-1.29-19.06-12.34-38.62-23.9-57.91-35.88q-45.49-28.21-90.93-56.53t-91-56.61q-45.08-28.05-90.14-56.14c-10.77-6.72-21.7-13.2-32.17-20.36-17.07-11.67-21.66-31.47-3.52-48.19-5.35,15.23-.52,26,13.83,33.25,5.89,3,11,7.48,16.47,11.28L1089,809.49c14.5,9,29,17.86,43.5,26.85,30.63,19,61.18,38.14,91.86,57q57.59,35.49,115.33,70.69c10.49,6.41,21,12.75,31.53,19.12l32.34,19.91c7.15,8.68,17.48,9.41,27.37,10.06,12.46.82,23.79-1.73,34.44-10,12-9.35,25.91-16.22,39-24.16l35.08-20.28c-.74,4.44-1.47,8.88-2.57,15.53,7.36-4.16,12.67-6.37,16.88-9.89,2-1.66,1.86-5.83,2.7-8.86l-7.79-.66,10.62-12.21c2.71-.51,5.84-.32,8-1.65,17.93-10.79,35.72-21.8,53.48-32.87,19.41-12.1,19.92-14,10-33.32C1630.66,874.66,1631.13,874.29,1631.36,874Zm-506-25.11c1.32-12.4-6.74-20.27-24.08-26.31C1099.72,840.37,1116.38,839.47,1125.4,848.93Zm-56.25-50.76c-3.35,13.58.47,17.43,24.17,27.2C1092.3,809.06,1076.18,809.28,1069.15,798.17Zm-11.75,5.21c.81-10.06-4.22-14.88-17-16.6C1040.89,798.12,1049.6,799.83,1057.4,803.38Z" transform="translate(100.1 71.8)"/>
      <path class="cls-8" d="M1739.86,503.5c-4.48.15-9.15-.48-13.39.6-21.74,5.53-43.57,10.24-66.14,7.11-5-.7-9.76-3.8-14.63-5.79-7.43-10.23-3.32-21.28-2.28-32.1,8.27-16.27,6.21-33.67,5.58-50.91,24.93,4.7,49.76,10,74.83,13.75,8,1.2,12.83,3.8,14.08,11.29a296.46,296.46,0,0,1,4.11,33.69C1742.39,488.54,1740.65,496,1739.86,503.5Z" transform="translate(100.1 71.8)"/>
      <path class="cls-9" d="M1019.91,706.47c-.31-10.1,7.81-14.64,14.29-19,17.1-11.57,34.9-22.13,52.72-32.59,2.54-1.5,6.73-.2,10.16-.19l40.25,46c-8.55,4.26-17.15,8.41-25.61,12.84-3.67,1.92-8.66,4.29-.6,7.41-1.31,3.51-3.56,7-3.74,10.55-.58,11.25-.39,22.54-.5,33.82-3-1.4-6.18-2.51-9-4.25-13.54-8.44-26.75-17.42-40.5-25.5-13.18-7.74-27.48-13.75-36.91-26.62C1020.3,708.11,1020.11,707.29,1019.91,706.47Z" transform="translate(100.1 71.8)"/>
      <path class="cls-10" d="M1655.47,339.76c-4.13,15.9-1.19,25.51,12.28,38.3l-13.37,14.27c7.56,6,9.32,5.7,16.79-1.52l16.17,10.67c.8-.92,1.6-1.83,2.39-2.75l-9.08-17.09c18.39-3.9,34.33-11.06,47.67-22.95,4.84-4.31,8.48-4.48,13-.81,7.24,5.9,14.38,11.92,21.56,17.88-1.71,2.91-3,6.14-5.22,8.63-3.63,4.16-7.79,7.85-11.72,11.73l-14.84-9.8c-1.1,8-2,14.85-3,21.72-1.5,10.24-11.85,19.24-22,18.19-12.56-1.31-25-3.51-37.55-5.21-7-1-14.12-1.7-21.19-2.54-1-3.75-2.42-7.45-3-11.27-1.18-7.63-1.93-15.33-2.85-23l1.14-14.84-3.84-.65-7.59,19.66-16-12.24c7-10.78,13.1-22.43,21.6-31.9C1640.36,340.32,1649.11,341.11,1655.47,339.76Z" transform="translate(100.1 71.8)"/>
      <path class="cls-11" d="M1409.53,787.42c-3.67,4-8.33,7.41-10.87,12-19.34,35-38.31,70.26-57.22,105.52-1,1.94-.48,4.75-.66,7.15q5.12,6.38,10.24,12.73c0,.64,0,1.28,0,1.92-3.65-1.62-7.56-2.82-10.9-4.92-19.41-12.17-38.61-24.67-58-36.85-22-13.81-44.11-27.41-66.17-41.1l4-2.4,22.17-42c-1.68-2.84-2.72-7.3-5.14-8.27-24.35-9.67-48.92-18.76-73.43-28,6.35-10.55,13-21,18.85-31.75,1.19-2.18-.31-5.83-.57-8.8l-36.39-19.88-.23-2.42c5.91-10.64,12-21.2,17.63-32,1.59-3,1.92-6.72,2.83-10.11l-.34-22.09.34-6.08q-.81-7.29-1.61-14.56,2.7-8.67,5.39-17.33.23,25,.44,50.11l3.73,5.52c0,.84,0,1.68.08,2.53q-11,20.18-22,40.35c2.21,2.5,4,5.87,6.73,7.34,10.81,5.74,21.94,10.87,33.36,16.43,2.08-1.5,4.62-3.57,7.38-5.29,16.68-10.39,33.48-20.56,50-31.17,2.3-1.47,3.32-4.93,4.94-7.46l-5.64-8,1.71-8.17.09-2.17L1264,670.8l4.4,3.68c1.28,2.85,1.94,6.26,3.93,8.47,16.84,18.72,33.93,37.22,50.94,55.79l-.07,6.37,15.51,22.54-1.81,1.68c-8.56-1.8-16.75-1.24-24.2,3.87-10,4.31-19.56,10.16-30,12.62-21.66,5.1-36.78,16.85-45.1,37.44-3.05,7.56-6.23,15.08-9.35,22.61.49.84.77,2,1.51,2.47q47.71,29.7,95.59,59.15c2.07,1.27,5.16.88,7.77,1.26,18.81-34.15,37.72-68.26,56.35-102.52,3.27-6,5.38-12.67,8-19a6.82,6.82,0,0,0,0-1.86l2.24-2.26,9.82,2.16Zm-82.8-28.15-14-18.29c-15.74-18.12-31.32-36.39-47.44-54.17-1.81-2-7.52-2.85-9.93-1.53-13.1,7.24-25.78,15.27-38.52,23.16-5.92,3.66-13.48,6.35-17.12,11.66-8.44,12.3-14.94,25.92-22.23,39,1.79,2.29,3.12,5.73,5.45,6.68q31.86,12.93,64.08,25c3.11,1.17,7.34,1.56,10.34.42,22-8.36,43.87-17.11,65.64-26.06C1324.79,764.39,1325.53,761.27,1326.73,759.27Z" transform="translate(100.1 71.8)"/>
      <path class="cls-12" d="M1756.3,408.42c-7.12,20.09-3.91,40,.87,60,2.08,8.72,4.61,17.49,5.25,26.37.52,7.2-1.59,14.57-2.28,21.89-.33,3.44-1.12,7.38.1,10.34,10.45,25.25,21.37,50.3,32,75.49.87,2.06.35,4.7.48,7.08L1769,614.29c-2.72-1.89-6.65-3.18-8-5.79-4.65-9.33-8.41-19.11-12.51-28.73l-4.47-70.55c1.31-9.11,4.72-18.5,3.54-27.28-3.78-27.95-7.79-55.7-1.2-83.72Z" transform="translate(100.1 71.8)"/>
      <path class="cls-13" d="M1615.25,376.14l16,12.24,6.17,1.82c-.63,1.32-1.26,2.64-1.9,4-7.57,11.29-14.81,22.83-22.87,33.76a64,64,0,0,1-14.52,14.39c-15.09,10.46-30.7,20.16-46.13,30.19.94,3.24,1.79,6.13,2.64,9l-1.84,1.85c-12.34-9.95-33-6.09-39.46-25.34-1.37-4.06-1.48-11,1-13.27,3.08-2.86,11.59-4.82,13.89-2.8,15.16,13.38,23.85-.79,34.43-6.92,2.55-1.48,4.58-4,7.23-5.15C1593.73,419.32,1603.94,397.28,1615.25,376.14Z" transform="translate(100.1 71.8)"/>
      <path class="cls-9" d="M1169.81,648.32q-.21-25.05-.44-50.11c9.07-5.47,17.74-11.92,27.41-16,4.58-1.92,11.1.77,16.74,1.36l24.68,8.17,2.39-2,1.59,0a14.43,14.43,0,0,1,0,1.86l6,6.3q-.95,13.06-1.88,26.12c-1.76-1.38-3.71-4.12-5.24-3.91-10.21,1.46-20.43,3.14-30.44,5.6-4.74,1.16-9.15,4-13.48,6.43C1187.94,637.43,1178.91,642.93,1169.81,648.32Z" transform="translate(100.1 71.8)"/>
      <path class="cls-9" d="M1164,615.54q.8,7.28,1.61,14.56c-6.86-7.91-13.38-2.7-19.46.93-7.63,4.57-14.85,9.83-22.18,14.9-2.21,1.53-4.18,3.42-6.43,5.29,6.14,5.95,11.39,5.8,17.33,2.25,10-6,20.25-11.55,30.4-17.29q.18,11,.34,22.09c-7.53,12.56-15.07,25.12-20,33.35-10.83-8.86-22.48-17.38-32.81-27.27-5.21-5-8.06-12.44-12-18.78l61.61-39.43C1163.14,610.56,1163.56,613.05,1164,615.54Z" transform="translate(100.1 71.8)"/>
      <path class="cls-14" d="M1669.34,346l-13.58-6.09c-13.18-16.26-10.39-34.33-6-52.59,6.79,0,13.76,1,20.35-.13,13.93-2.44,17.58-.37,18.74,13.86.55,6.72.1,13.52.1,21.89,7.54-5.89,12.19-17.91,22.81-7.51l-11.9,16.24-26.47,12.2Z" transform="translate(100.1 71.8)"/>
      <path class="cls-15" d="M1337.66,499c24.73,2.87,48.15,9.5,70.07,21.89,14.85,8.4,31.53,13.71,45.93,22.73,30.49,19.1,60.67,38.84,89.64,60.14,12.54,9.21,22.54,22.33,32.28,34.79,7,9,1.24,18.87-10.4,17.44a203.89,203.89,0,0,1-71.27-22.25c-5.59-3-11.52-5.29-17.05-8.35-24.59-13.6-50-26-73.34-41.46-22.92-15.18-44-33.18-65.25-50.77-5.93-4.92-10-12.41-13.9-19.34-5.68-10.23-2.63-14.65,9.25-14.82C1335,499,1336.31,499,1337.66,499Zm226.53,154.12c3-1.16,8.1-1.69,10.28-4.48,1.35-1.73-.71-7.87-3-10.38-11.58-12.58-22.61-26.06-35.93-36.56a598.46,598.46,0,0,0-106.88-66.85c-10.8-5.3-21.54-11-32.83-15-19.3-6.88-38.92-12.94-58.66-18.46-3.15-.88-8.41,2.09-11.09,4.84-1.19,1.22,1,6.68,2.78,9.6a41.16,41.16,0,0,0,8.75,10.88c22.63,18.54,44.44,38.37,68.62,54.67,23.74,16,49.89,28.48,75.16,42.18,7,3.81,15.09,5.77,22,9.81C1521.8,644.32,1542.2,648.65,1564.19,653.15Z" transform="translate(100.1 71.8)"/>
      <path class="cls-16" d="M1711.78,315.41c-10.62-10.4-15.27,1.62-22.81,7.51,0-8.37.45-15.17-.1-21.89-1.16-14.23-4.81-16.3-18.74-13.86-6.59,1.15-13.56.15-20.35.13-5.45-11.7-3.67-15.79,8.49-19.31,3.75-1.08,7.53-2,11.29-3.05l26.48-.16C1720.31,270.42,1726.87,291.53,1711.78,315.41Z" transform="translate(100.1 71.8)"/>
      <path class="cls-4" d="M1548.69,759.25l-8.23,3.9-15.83-3.67-7.3-4.35c-10.49-4.66-21.08-9.11-31.44-14-18.14-8.63-36.13-17.56-54.19-26.36l32.24-6c6.55,1.81,13.77,2.44,19.53,5.67,16.21,9.11,32,19,47.57,29.21,6.51,4.29,11.87,10.31,17.75,15.55Z" transform="translate(100.1 71.8)"/>
      <path class="cls-17" d="M1240.59,589.78l-2.39,2-8.52-11.94q-3.84-6.15-7.7-12.3c0-1.9.49-3.9,0-5.67-2.4-9.29,2.09-16.84,11.53-16.15,12.7.92,25.6,2.64,37.81,6.15,19.26,5.53,38.61,11.52,56.84,19.71,24.59,11,48.16,24.34,72.14,36.72,8.94,4.61,18,9,26.66,14.14,18.6,11.11,37.62,21.69,55.21,34.25,33.1,23.64,66.35,47.31,92.48,79.17a13.33,13.33,0,0,1,1.27,1.56c4.53,7.42,10.13,14.88,5.25,24.05-3.06,5.75-18.64,8.58-27.19,5-2.36-1-3.58-4.71-5.33-7.17l.1-.06c7.2,1.33,14.39,3.71,21.59,3.72,9.33,0,11.73-4.48,7.94-12.88-2.31-5.11-4.49-10.85-8.38-14.6-18.2-17.54-35.8-36-55.84-51.25a789.73,789.73,0,0,0-80.6-53.77c-34.55-20.08-69.78-39.38-106.21-55.69-26.51-11.86-55.42-18.37-83.33-27.07-2.44-.77-5.88-1-7.89.12a47.65,47.65,0,0,0-11.26,9.3c-.57.63,2.42,4.47,3.76,6.83.71,2.81,1,5.86,2.22,8.39C1233.79,578.25,1237.29,584,1240.59,589.78Z" transform="translate(100.1 71.8)"/>
      <path class="cls-18" d="M1351,924.83q-5.12-6.36-10.24-12.73c19,11.65,38.8,22.1,56.65,35.26,21.12,15.55,45.71,15.9,66.56-.15,12.11-9.31,26.14-16.09,39.21-24.17,30.91-19.11,61.87-38.14,92.59-57.55,12.89-8.14,25.22-17.15,37.88-25.66a27.35,27.35,0,0,1,1.89,2.27,4.64,4.64,0,0,1-.4,1.91c-2.53,2.16-4.85,4.65-7.62,6.43-23,14.75-45.9,29.55-69.06,44s-46.79,28.57-70.21,42.83c-4.57,2.78-9.45,5.14-13.67,8.37-29.23,22.35-47.73,26.31-76.77,8C1382.32,943.89,1366.63,934.43,1351,924.83Z" transform="translate(100.1 71.8)"/>
      <path class="cls-19" d="M1351,924.83c15.61,9.6,31.3,19.06,46.81,28.82,29,18.27,47.54,14.31,76.77-8,4.22-3.23,9.1-5.59,13.67-8.37,23.42-14.26,46.94-28.34,70.21-42.83s46.09-29.22,69.06-44c2.77-1.78,5.09-4.27,7.62-6.43l-5.9,11.74L1603,872c-26.8,16.77-53.52,33.68-80.42,50.28-22.39,13.81-44.78,27.67-67.67,40.64-6.39,3.62-14.41,5-21.87,6-16,2.11-28.92-6.09-41.79-14-1.33-1.4-2.45-3.1-4-4.15-12-8.09-24.16-16.06-36.25-24.07C1351,926.11,1351,925.47,1351,924.83Z" transform="translate(100.1 71.8)"/>
      <path class="cls-20" d="M1524.63,759.48l15.83,3.67-1.46,2.53-8.55,1.59c-1.89-.2-3.84-.84-5.65-.56-27.57,4.41-55.11,9-82.67,13.43-10.85,1.76-21.72,3.4-32.58,5.1l-9.82-2.16-61-15.43-15.51-22.54c1.26.34,3.3.3,3.65,1.06,5.29,11.45,13.69,17.65,26.6,19.36,14.81,2,29.35,6,44.07,8.73,7.52,1.41,14,4.15,23.06,1.89,20.52-5.11,42.07-6,63.13-9.13C1497.41,765,1511,762,1524.63,759.48Z" transform="translate(100.1 71.8)"/>
      <path class="cls-21" d="M1106.88,765.31c.11-11.28-.08-22.57.5-33.82.18-3.57,2.43-7,3.74-10.55a14.38,14.38,0,0,1,2-.13c-.58,13.67-1.32,27.33-1.65,41-.09,3.78,1.06,7.6,1.64,11.4l3.91.2v-.12c2,3.65,3.17,8.27,6.14,10.72,5.52,4.54,12.08,7.81,18.2,11.61,0,.66,0,1.33,0,2l-12.2-4.06a6.92,6.92,0,0,1-1.81-.19l-18-10.08c-1.53-2.1-2.6-5-4.65-6.18-14.3-8.47-28.79-16.62-43.28-24.76-.58-.32-1.84.55-2.78.86-3.46-7.61-9.13-12-17.71-12.08l-7.31-3.6q-2.67-2-5.35-4c-13-9.27-14.62-14.53-8.25-27.08.2.82.39,1.64.59,2.47-.58,7.94,3.43,13.1,10,16.83,8.13,4.6,16.29,9.18,24.24,14.08,16.86,10.41,33.59,21,51.8,32.45Z" transform="translate(100.1 71.8)"/>
      <path class="cls-22" d="M1558.15,538.94c-14.46-5.6-30.15-10.41-44.65-17.64a311.56,311.56,0,0,1-42.56-26.11c-11-7.91-20.69-17.68-30.47-27.13-1.78-1.73-2.57-7.69-1.38-8.64,3-2.37,8-5,11.07-4,11.6,3.71,22.77,8.81,34.1,13.41,27.13,11,50.52,28.17,73.88,45.3,3.38,2.48,6.11,6.24,8.22,9.93,1.82,3.18,3.75,7.5,2.91,10.56C1568.74,536.58,1563.2,537.14,1558.15,538.94Zm8.73-3.92c.4-1,.81-1.94,1.22-2.92-10.1-14.76-24.91-23.94-39-34.52-22.56-16.87-48.62-25.71-73.66-37-3.58-1.6-8.6,0-13,.13,1.74,3.64,2.56,8.44,5.39,10.72,13.16,10.6,26.57,21,40.52,30.49,8.79,6,18.47,10.85,28.15,15.34,12.55,5.82,25.43,11,38.34,16C1558.53,534.67,1562.85,534.47,1566.88,535Z" transform="translate(100.1 71.8)"/>
      <path class="cls-6" d="M1724.56,753.32c-.38-6.22-1.28-12.47-1-18.67.42-10,1.6-19.92,2.46-29.88,7.64-1.94,14.79-4.59,18.45-12.43l9.42,14.53c-5.11,11.82-10.9,23.4-15.08,35.54C1736.2,750,1732.23,753.48,1724.56,753.32Z" transform="translate(100.1 71.8)"/>
      <path class="cls-23" d="M1800.54,741.29l6.41,18.12c-1.83,9.5-3.31,19.09-5.61,28.48-1.81,7.44-6.18,12.29-14.91,10-1.09-5.62-2.88-11.22-3.1-16.88-.3-7.89.58-15.82,1-23.74.85-1.91,2-5.55,2.52-5.47C1795.16,753,1796.64,745.61,1800.54,741.29Z" transform="translate(100.1 71.8)"/>
      <path class="cls-24" d="M1635.52,394.16c.64-1.32,1.27-2.64,1.9-4l4.11-6c.92,7.67,1.67,15.37,2.85,23,.59,3.82,2,7.52,3,11.27l1.61,3.93c.63,17.24,2.69,34.64-5.58,50.91C1635.17,447.49,1634.12,421,1635.52,394.16Z" transform="translate(100.1 71.8)"/>
      <path class="cls-25" d="M1693.81,550.85c6.68,2.15,9.42,6.64,10.74,13.71,3,16,7.21,31.67,10.94,47.49-4.67-4.34-9.47-8.55-14-13.06-3-3-5.48-6.36-8.19-9.56l-.11.18a28.45,28.45,0,0,1-.68-4.9C1692.91,573.42,1693.37,562.13,1693.81,550.85Z" transform="translate(100.1 71.8)"/>
      <path class="cls-26" d="M1673.41,343.86l26.47-12.21,2.31,7.63c-7.47,3.34,1.48,6.71,0,10.06-1.11,1.22-2.53,2.27-3.28,3.68-9.29,17.55-15.18,18.16-27.29,2.72Q1672.5,349.8,1673.41,343.86Z" transform="translate(100.1 71.8)"/>
      <path class="cls-27" d="M1631.36,874c-.23.25-.7.62-.64.72,10,19.32,9.45,21.22-10,33.32-17.76,11.07-35.55,22.08-53.48,32.87-2.21,1.33-5.34,1.14-8,1.65,19.45-12.1,38.94-24.14,58.32-36.36,4.78-3,9.18-6.63,13.75-10,5.43-9,.61-15.19-5.89-20.54-3.56-2.93-7.85-5-11.8-7.39l4.85-2.57Z" transform="translate(100.1 71.8)"/>
      <path class="cls-28" d="M1100.79,645.57c3.92,6.34,6.77,13.8,12,18.78,10.33,9.89,22,18.41,32.81,27.27,4.94-8.23,12.48-20.79,20-33.35-.91,3.39-1.24,7.08-2.83,10.11-5.65,10.79-11.72,21.35-17.63,32-4-3.22-8.28-6.09-11.81-9.73-11.57-11.94-22.86-24.17-34.25-36.29C1099.64,651.42,1100.22,648.5,1100.79,645.57Z" transform="translate(100.1 71.8)"/>
      <path class="cls-29" d="M1724.56,753.32c7.67.16,11.64-3.36,14.23-10.91,4.18-12.14,10-23.72,15.08-35.54.47,2.61,2,5.63,1.22,7.75-4.49,11.73-9.06,23.49-14.6,34.75C1736.36,757.75,1730.52,758.66,1724.56,753.32Z" transform="translate(100.1 71.8)"/>
      <path class="cls-30" d="M1028.16,733.55l5.36,4c-8.84,4.62-15.07,10.62-11.54,21.79l30.89,23.95-2.27,2.06c-5.47-3.8-10.58-8.29-16.47-11.28-14.35-7.28-19.18-18-13.83-33.25Z" transform="translate(100.1 71.8)"/>
      <path class="cls-31" d="M1800.54,741.29c-3.9,4.32-5.38,11.71-13.74,10.53-.57-.08-1.67,3.56-2.52,5.47q-3-8.16-6-16.33c8.13,1.78,14.64-.2,18.62-8Z" transform="translate(100.1 71.8)"/>
      <path class="cls-32" d="M1748.57,579.77c4.1,9.62,7.86,19.4,12.51,28.73,1.3,2.61,5.23,3.9,8,5.79L1753,616.48Q1750.78,598.12,1748.57,579.77Z" transform="translate(100.1 71.8)"/>
      <path class="cls-33" d="M1744.45,692.34c-3.66,7.84-10.81,10.49-18.45,12.43l-5.53-7.65c12.08-.71,14.12-2.8,16-16.36Z" transform="translate(100.1 71.8)"/>
      <path class="cls-34" d="M1099.07,654.35c11.39,12.12,22.68,24.35,34.25,36.29,3.53,3.64,7.86,6.51,11.81,9.73.08.81.15,1.61.23,2.42l-5.9,3.87-2.13-6-40.25-46A14.73,14.73,0,0,1,1099.07,654.35Z" transform="translate(100.1 71.8)"/>
      <path class="cls-35" d="M1786.43,797.91c8.73,2.27,13.1-2.58,14.91-10,2.3-9.39,3.78-19,5.61-28.48,6.15,13.74.67,26.16-5.57,37.75C1797.26,804.82,1790.85,804.4,1786.43,797.91Z" transform="translate(100.1 71.8)"/>
      <path class="cls-36" d="M1229.68,579.83l8.52,11.94-24.68-8.17q-.16-5.19-.32-10.4Z" transform="translate(100.1 71.8)"/>
      <path class="cls-37" d="M1696,264.78l-26.48.16C1678.34,257.36,1687.19,261.06,1696,264.78Z" transform="translate(100.1 71.8)"/>
      <path class="cls-38" d="M1229.68,579.83l-16.48-6.63,8.78-5.67Q1225.84,573.68,1229.68,579.83Z" transform="translate(100.1 71.8)"/>
      <path class="cls-39" d="M1618.46,865.77l-4.85,2.57L1607,874l-4-1.94,26.25-16.29Z" transform="translate(100.1 71.8)"/>
      <path class="cls-40" d="M1514.21,883.65c-7-2-14.47-2.94-20.73-6.25-11-5.83-10.33-18.47.6-24.46,12.66-6.93,26.06-7.21,38.56-1.29,5,2.38,10.88,9.9,10.7,14.89-.32,9.24-9.44,13-17.72,15.29-3.42.94-7.32.16-11,.16C1514.48,882.54,1514.34,883.09,1514.21,883.65Z" transform="translate(100.1 71.8)"/>
      <path class="cls-41" d="M1409.55,785.24c10.86-1.7,21.73-3.34,32.58-5.1,27.56-4.47,55.1-9,82.67-13.43,1.81-.28,3.76.36,5.65.56-13.54,2.65-27,5.55-40.63,7.88-22.44,3.86-44.93,7.39-67.41,11-4.25.68-8.58.88-12.88,1.31C1409.54,786.69,1409.54,786,1409.55,785.24Z" transform="translate(100.1 71.8)"/>
      <path class="cls-42" d="M1649,422.41l-1.61-3.93c7.07.84,14.14,1.58,21.19,2.54,12.52,1.7,25,3.9,37.55,5.21,10.11,1,20.46-8,22-18.19,1-6.87,1.9-13.76,3-21.72l14.84,9.8.51,2.1c-6.59,28-2.58,55.77,1.2,83.72,1.18,8.78-2.23,18.17-3.54,27.28l-4.24-5.72c.79-7.46,2.53-15,2.16-22.36a296.46,296.46,0,0,0-4.11-33.69c-1.25-7.49-6.1-10.09-14.08-11.29C1698.76,432.4,1673.93,427.11,1649,422.41Z" transform="translate(100.1 71.8)"/>
      <path class="cls-43" d="M1693.81,550.85c-.44,11.28-.9,22.57-1.26,33.86a28.45,28.45,0,0,0,.68,4.9c-.72,6.1-1.45,12.2-2.33,19.69-3.52-21.81-6.81-42.23-10.63-65.93Z" transform="translate(100.1 71.8)"/>
      <path class="cls-14" d="M1746.44,398.22l-.51-2.1c3.93-3.88,8.09-7.57,11.72-11.73,2.17-2.49,3.51-5.72,5.22-8.63,2.59,3.29,4.69,7.19,7.85,9.78,23.62,19.32,32.81,46.19,40.28,74.32,3.74,14.1,9,27.85,14.16,41.51,2.54,6.67.28,11.19-4.59,14.82-5,3.76-10.41,4.72-14.93-1.21-1.61-2.11-3.2-4.26-5.12-6.83l-7.5,3.18c-.88-1.2-2.08-2.15-1.92-2.71,7.31-25.52-6.47-47.22-12.58-70.31-3.44-13-12.08-22-22.21-29.89Z" transform="translate(100.1 71.8)"/>
      <path class="cls-44" d="M1671.6,355.74c12.11,15.44,18,14.83,27.29-2.72.75-1.41,2.17-2.46,3.28-3.68,3,11.37-3.91,19.92-18.34,22.7-2.38-.93-5-1.45-7.08-2.88C1672.18,365.94,1666.92,362.65,1671.6,355.74Z" transform="translate(100.1 71.8)"/>
      <path class="cls-45" d="M1671.6,355.74c-4.68,6.91.58,10.2,5.15,13.42,2,1.43,4.7,1.95,7.08,2.88-16.18.67-20-6.18-14.49-26.06l4.07-2.13Q1672.51,349.8,1671.6,355.74Z" transform="translate(100.1 71.8)"/>
      <path class="cls-46" d="M1603,872l4,1.94c6.12,3.37,12.83,6,18.15,10.36,3.18,2.6,4.18,7.86,6.17,11.93-4.57,3.34-9,7-13.75,10-19.38,12.22-38.87,24.26-58.32,36.36l-10.62,12.21-9.22,3.88L1504.31,979c-1.89.38-4,.31-5.63,1.2-13.41,7.46-26.47,15.61-40.18,22.45-7.08,3.53-15.43,7.1-22.92,6.59-10-.68-19.83-5.29-29.72-8.21l-34.65-19.68-14.34-12.42,26.71-14.22,7.68.29c12.87,7.88,25.8,16.08,41.79,14,7.46-1,15.48-2.36,21.87-6,22.89-13,45.28-26.83,67.67-40.64C1549.49,905.72,1576.21,888.81,1603,872Z" transform="translate(100.1 71.8)"/>
      <path class="cls-47" d="M1356.87,968.9l14.34,12.42c0,.62,0,1.25,0,1.87-10.51-6.37-21-12.71-31.53-19.12q-57.69-35.31-115.33-70.69c-30.68-18.9-61.23-38-91.86-57-14.48-9-29-17.9-43.5-26.85l2.3-2.06,5.73,2.12,6.28,4.31,52.24,32c27.92,17.47,55.79,35,83.78,52.37,10.24,6.35,20.9,12,31.17,18.31,25,15.29,49.8,30.77,74.69,46.17l3.65,2.47Z" transform="translate(100.1 71.8)"/>
      <path class="cls-48" d="M1405.86,1001c9.89,2.92,19.67,7.53,29.72,8.21,7.49.51,15.84-3.06,22.92-6.59,13.71-6.84,26.77-15,40.18-22.45,1.6-.89,3.74-.82,5.63-1.2-13.08,7.94-27,14.81-39,24.16-10.65,8.3-22,10.85-34.44,10-9.89-.65-20.22-1.38-27.37-10.06Z" transform="translate(100.1 71.8)"/>
      <path class="cls-49" d="M1125.4,848.93c-9-9.46-25.68-8.56-24.08-26.31C1118.66,828.66,1126.72,836.53,1125.4,848.93Z" transform="translate(100.1 71.8)"/>
      <path class="cls-49" d="M1069.15,798.17c7,11.11,23.15,10.89,24.17,27.2C1069.62,815.6,1065.8,811.75,1069.15,798.17Z" transform="translate(100.1 71.8)"/>
      <path class="cls-50" d="M1539.39,958.69l9.22-3.88,7.79.66c-.84,3-.71,7.2-2.7,8.86-4.21,3.52-9.52,5.73-16.88,9.89C1537.92,967.57,1538.65,963.13,1539.39,958.69Z" transform="translate(100.1 71.8)"/>
      <path class="cls-51" d="M1057.4,803.38c-7.8-3.55-16.51-5.26-17-16.6C1053.18,788.5,1058.21,793.32,1057.4,803.38Z" transform="translate(100.1 71.8)"/>
      <path class="cls-52" d="M1091.25,807.43l-2.3,2.06-38.35-24.16,2.27-2.06c8.47,4.69,17.09,9.15,25.36,14.18C1082.87,800.28,1086.93,804.08,1091.25,807.43Z" transform="translate(100.1 71.8)"/>
      <path class="cls-53" d="M1405.86,1001l-2.35,2.1-32.34-19.91c0-.62,0-1.25,0-1.87Z" transform="translate(100.1 71.8)"/>
      <path class="cls-54" d="M1106.88,765.31l-.31,7c-18.21-11.42-34.94-22-51.8-32.45-8-4.9-16.11-9.48-24.24-14.08-6.6-3.73-10.61-8.89-10-16.83,9.43,12.87,23.73,18.88,36.91,26.62,13.75,8.08,27,17.06,40.5,25.5C1100.7,762.8,1103.88,763.91,1106.88,765.31Z" transform="translate(100.1 71.8)"/>
      <path class="cls-55" d="M1137.33,700.69l2.13,6-26.37,14.15a14.38,14.38,0,0,0-2,.13c-8.06-3.12-3.07-5.49.6-7.41C1120.18,709.1,1128.78,705,1137.33,700.69Z" transform="translate(100.1 71.8)"/>
      <path class="cls-56" d="M1641.53,384.21l-4.11,6-6.17-1.82q3.78-9.83,7.58-19.66l3.84.65Z" transform="translate(100.1 71.8)"/>
      <path class="cls-9" d="M1177.54,759.11c7.29-13.09,13.79-26.71,22.23-39,3.64-5.31,11.2-8,17.12-11.66,12.74-7.89,25.42-15.92,38.52-23.16,2.41-1.32,8.12-.47,9.93,1.53,16.12,17.78,31.7,36.05,47.44,54.17l6,20.24c-16.51,6.72-33.57,12.39-49.39,20.48-13.8,7.06-25.29,3.11-37.88-2.1C1213.75,772.23,1195.55,765.89,1177.54,759.11Z" transform="translate(100.1 71.8)"/>
      <path class="cls-9" d="M1228.29,845.87c3.12-7.53,6.3-15,9.35-22.61,8.32-20.59,23.44-32.34,45.1-37.44,10.39-2.46,20-8.31,30-12.62,1.37,2.24,3.65,4.35,4,6.73,2.53,19,4.76,38.12,6.93,57.21,2.53,22.38,4.91,44.78,7.35,67.17l-2.06.06q-21.88-13.95-43.75-27.89c-9.48-6.06-18.62-12.71-28.48-18.05C1247.58,853.52,1237.77,850,1228.29,845.87Z" transform="translate(100.1 71.8)"/>
      <path class="cls-4" d="M1524.63,759.48C1511,762,1497.41,765,1483.7,767c-21.06,3.13-42.61,4-63.13,9.13-9,2.26-15.54-.48-23.06-1.89-14.72-2.74-29.26-6.76-44.07-8.73-12.91-1.71-21.31-7.91-26.6-19.36-.35-.76-2.39-.72-3.65-1.06,0-2.12,0-4.25.07-6.37,16.31-2.84,32.66-5.45,48.87-8.79,2.07-.42,3.37-4.58,5-7,2.59,4.81,5.56,7.2,11.67,4.66,4.74-2,10.47-1.4,15.41-3,6.74-2.2,13.15-5.38,19.7-8.15,6.09,3.31,12,6.92,18.28,9.85,16.88,7.9,33.72,16,51,23,7.57,3.1,16.07,3.94,24.15,5.81Z" transform="translate(100.1 71.8)"/>
      <path class="cls-4" d="M1330.93,904.31c-2.44-22.39-4.82-44.79-7.35-67.17-2.17-19.09-4.4-38.17-6.93-57.21-.31-2.38-2.59-4.49-4-6.73,7.45-5.11,15.64-5.67,24.2-3.87a25.82,25.82,0,0,0,4.37,2c18.73,4.73,37.48,9.37,56.23,14a6.82,6.82,0,0,1,0,1.86c-14.24,25.66-28.36,51.39-42.79,76.94C1347.1,877.69,1338.89,890.93,1330.93,904.31Z" transform="translate(100.1 71.8)"/>
      <path class="cls-9" d="M1163.47,763.22c24.51,9.26,49.08,18.35,73.43,28,2.42,1,3.46,5.43,5.14,8.27-2.11,2.31-4.63,4.37-6.26,7-6.26,10-12.24,20.29-18.24,30.3L1117,773.3v.12a30.69,30.69,0,0,1,5.35-2.12C1136,768.53,1149.75,765.9,1163.47,763.22Z" transform="translate(100.1 71.8)"/>
      <path class="cls-9" d="M1151.62,696.72q11-20.18,22-40.35l8.17,0,66.61,12.28,5.64,8c-17.68,10.68-35.61,21-52.94,32.23-7.11,4.6-12.71,5-20.14.87C1171.62,704.54,1161.43,701,1151.62,696.72Z" transform="translate(100.1 71.8)"/>
      <path class="cls-9" d="M1113.09,720.81l26.37-14.15,5.9-3.87,36.39,19.88c-6.22,11.58-12.09,23.37-18.93,34.57-1.47,2.4-6.34,3.15-9.81,3.83-11.68,2.28-23.48,3.95-35.1,6.43-1.93.42-3.24,3.74-4.83,5.72-.58-3.8-1.73-7.62-1.64-11.4C1111.77,748.14,1112.51,734.48,1113.09,720.81Z" transform="translate(100.1 71.8)"/>
      <path class="cls-57" d="M1250.2,658.26l-.09,2.17c-6.92-.7-13.89-1.08-20.76-2.16-15.28-2.41-30.52-5.17-45.77-7.79l28.13-20.2,10.46-2c5.23,13.88,16.39,22.22,28.11,30Z" transform="translate(100.1 71.8)"/>
      <path class="cls-58" d="M1391.26,955l-7.68-.29-4.14-4.33-6.18-5.69-70.46-42.19-8.63-4.57-5.59-3.6-51.92-30.39c-2-2.47-3.51-5.71-6.05-7.29q-28-17.48-56.4-34.35c-14.25-8.5-28.69-16.68-43-25l-2.08-3.71,12.21,4.06c13.26,8.58,26.4,17.35,39.81,25.69,11.44,7.11,23.19,13.73,34.8,20.57,22.06,13.69,44.18,27.29,66.17,41.1,19.41,12.18,38.61,24.68,58,36.85,3.34,2.1,7.25,3.3,10.9,4.92,12.09,8,24.21,16,36.25,24.07C1388.81,951.87,1389.93,953.57,1391.26,955Z" transform="translate(100.1 71.8)"/>
      <path class="cls-59" d="M1177.54,759.11c18,6.78,36.21,13.12,54,20.49,12.59,5.21,24.08,9.16,37.88,2.1,15.82-8.09,32.88-13.76,49.39-20.48l7.93-2c-1.2,2-1.94,5.12-3.68,5.84-21.77,8.95-43.63,17.7-65.64,26.06-3,1.14-7.23.75-10.34-.42q-32.21-12.06-64.08-25C1180.66,764.84,1179.33,761.4,1177.54,759.11Z" transform="translate(100.1 71.8)"/>
      <path class="cls-9" d="M1268.39,674.48l-4.4-3.68,24.53,1.54,24.26,6.07-6.63.63c.88,12.42,1.7,24.11,2.53,35.8-3-2.67-6.13-5.18-8.93-8C1289.24,696.09,1278.83,685.26,1268.39,674.48Z" transform="translate(100.1 71.8)"/>
      <path class="cls-59" d="M1117,773.3l100.56,63.49c6-10,12-20.25,18.24-30.3,1.63-2.61,4.15-4.67,6.26-7l-22.17,42c-4.78-2-9.91-3.37-14.28-6-21.53-13.1-42.86-26.53-64.27-39.84-6.12-3.8-12.68-7.07-18.2-11.61C1120.15,781.57,1119,777,1117,773.3Z" transform="translate(100.1 71.8)"/>
      <path class="cls-59" d="M1268.39,674.48c10.44,10.78,20.85,21.61,31.36,32.33,2.8,2.85,5.94,5.36,8.93,8,2.5,3.49,4.54,7.47,7.61,10.35,3.66,3.43,8.65,8.87,12.27,8.31,16.36-2.51,32.44-6.83,48.62-10.5l0-.06c-1.66,2.43-3,6.59-5,7-16.21,3.34-32.56,5.95-48.87,8.79-17-18.57-34.1-37.07-50.94-55.79C1270.33,680.74,1269.67,677.33,1268.39,674.48Z" transform="translate(100.1 71.8)"/>
      <path class="cls-20" d="M1151.62,696.72c9.81,4.25,20,7.82,29.34,12.95,7.43,4.08,13,3.73,20.14-.87,17.33-11.23,35.26-21.55,52.94-32.23-1.62,2.53-2.64,6-4.94,7.46-16.53,10.61-33.33,20.78-50,31.17-2.76,1.72-5.3,3.79-7.38,5.29-11.42-5.56-22.55-10.69-33.36-16.43C1155.59,702.59,1153.83,699.22,1151.62,696.72Z" transform="translate(100.1 71.8)"/>
      <path class="cls-40" d="M1165.25,636.18c-10.15,5.74-20.4,11.31-30.4,17.29-5.94,3.55-11.19,3.7-17.33-2.25,2.25-1.87,4.22-3.76,6.43-5.29,7.33-5.07,14.55-10.33,22.18-14.9,6.08-3.63,12.6-8.84,19.46-.93Q1165.41,633.13,1165.25,636.18Z" transform="translate(100.1 71.8)"/>
      <path class="cls-28" d="M1228.29,845.87c9.48,4.13,19.29,7.65,28.35,12.56,9.86,5.34,19,12,28.48,18.05q21.86,14,43.75,27.89l4.29,4.38c-2.61-.38-5.7,0-7.77-1.26q-47.92-29.36-95.59-59.15C1229.06,847.88,1228.78,846.71,1228.29,845.87Z" transform="translate(100.1 71.8)"/>
      <path class="cls-60" d="M1333.16,908.75l-4.29-4.38,2.06-.06c8-13.38,16.17-26.62,23.82-40.17,14.43-25.55,28.55-51.28,42.79-76.94-2.65,6.36-4.76,13-8,19C1370.88,840.49,1352,874.6,1333.16,908.75Z" transform="translate(100.1 71.8)"/>
      <path class="cls-59" d="M1288.52,672.34,1264,670.8l-13.79-12.54.08.07c-3.68-4.08-7.8-7.86-10.92-12.33-3-4.24-4.89-9.22-7.27-13.87,9,9.36,18.15,18.51,26.8,28.15,6.84,7.63,20,10.27,28.26,4.68,6-4,11.72-8.39,17.57-12.61-.31,1.8,0,4.3-1,5.29-4.84,4.51-10.07,8.6-15.16,12.85Z" transform="translate(100.1 71.8)"/>
      <path class="cls-59" d="M1222.17,628.31l-10.46,2-38.17,23.56-3.73-5.52c9.1-5.39,18.13-10.89,27.31-16.12,4.33-2.47,8.74-5.27,13.48-6.43,10-2.46,20.23-4.14,30.44-5.6,1.53-.21,3.48,2.53,5.24,3.91l-8.06,2.24Z" transform="translate(100.1 71.8)"/>
      <path class="cls-61" d="M1183.58,650.48c15.25,2.62,30.49,5.38,45.77,7.79,6.87,1.08,13.84,1.46,20.76,2.16l-1.71,8.17-66.61-12.28Q1182.68,653.41,1183.58,650.48Z" transform="translate(100.1 71.8)"/>
      <path class="cls-59" d="M1113.08,773.22c1.59-2,2.9-5.3,4.83-5.72,11.62-2.48,23.42-4.15,35.1-6.43,3.47-.68,8.34-1.43,9.81-3.83,6.84-11.2,12.71-23,18.93-34.57.26,3,1.76,6.62.57,8.8-5.9,10.79-12.5,21.2-18.85,31.75-13.72,2.68-27.44,5.31-41.13,8.08a30.69,30.69,0,0,0-5.35,2.12Z" transform="translate(100.1 71.8)"/>
      <path class="cls-62" d="M1141.32,795.63c21.41,13.31,42.74,26.74,64.27,39.84,4.37,2.65,9.5,4,14.28,6l-4,2.39c-11.61-6.84-23.36-13.46-34.8-20.57-13.41-8.34-26.55-17.11-39.81-25.69C1141.31,797,1141.32,796.29,1141.32,795.63Z" transform="translate(100.1 71.8)"/>
      <path class="cls-63" d="M1397.49,785.34c-18.75-4.67-37.5-9.31-56.23-14a25.82,25.82,0,0,1-4.37-2l1.81-1.68,61,15.43Z" transform="translate(100.1 71.8)"/>
      <path class="cls-64" d="M1183.58,650.48q-.9,2.92-1.79,5.84l-8.17,0c0-.85,0-1.69-.08-2.53l38.17-23.56Z" transform="translate(100.1 71.8)"/>
      <path class="cls-65" d="M1326.73,759.27l-7.93,2-6-20.24Z" transform="translate(100.1 71.8)"/>
      <path class="cls-9" d="M1240.59,589.78c-3.3-5.81-6.8-11.53-9.8-17.49-1.27-2.53-1.51-5.58-2.22-8.39,19.17-6.18,36.77-3.68,52.45,9.45-.7,2.64-.71,5.78-2.22,7.82-6.33,8.51-19,11.75-29.3,8.41-2.18-.71-4.86.11-7.32.22Z" transform="translate(100.1 71.8)"/>
      <path class="cls-66" d="M1238.22,626.32l8.06-2.24q.93-13.07,1.88-26.12l10.12,7.92,11.85,12c-2.66,2.6-4.94,6.7-8.06,7.5-7,1.79-14.51,2-21.8,2.77Z" transform="translate(100.1 71.8)"/>
      <path class="cls-67" d="M1242.18,589.8c2.46-.11,5.14-.93,7.32-.22,10.27,3.34,23,.1,29.3-8.41,1.51-2,1.52-5.18,2.22-7.82,8.65,6.58,1.65,10.31-2.63,14.54l-9.75,7.8c-7.57,4-14.4,3.07-20.83-2.7-1.26-1.14-3.73-.92-5.64-1.33A14.43,14.43,0,0,0,1242.18,589.8Z" transform="translate(100.1 71.8)"/>
      <path class="cls-68" d="M1242.17,591.66c1.91.41,4.38.19,5.64,1.33,6.43,5.77,13.26,6.66,20.83,2.7l-.72,12.18c-1.72-1.4-3.26-3.32-5.23-4-1.1-.38-2.91,1.28-4.41,2L1248.16,598Z" transform="translate(100.1 71.8)"/>
      <path class="cls-3" d="M1564.19,653.15c-22-4.5-42.39-8.83-60.87-19.74-6.86-4-14.92-6-22-9.81-25.27-13.7-51.42-26.17-75.16-42.18-24.18-16.3-46-36.13-68.62-54.67a41.16,41.16,0,0,1-8.75-10.88c-1.73-2.92-4-8.38-2.78-9.6,2.68-2.75,7.94-5.72,11.09-4.84,19.74,5.52,39.36,11.58,58.66,18.46,11.29,4,22,9.69,32.83,15a598.46,598.46,0,0,1,106.88,66.85c13.32,10.5,24.35,24,35.93,36.56,2.31,2.51,4.37,8.65,3,10.38C1572.29,651.46,1567.2,652,1564.19,653.15Z" transform="translate(100.1 71.8)"/>
      <path class="cls-3" d="M1278.39,587.89c4.28-4.23,11.28-8,2.63-14.54-15.68-13.13-33.28-15.63-52.45-9.45-1.34-2.36-4.33-6.2-3.76-6.83a47.65,47.65,0,0,1,11.26-9.3c2-1.17,5.45-.89,7.89-.12,27.91,8.7,56.82,15.21,83.33,27.07,36.43,16.31,71.66,35.61,106.21,55.69a789.73,789.73,0,0,1,80.6,53.77c20,15.22,37.64,33.71,55.84,51.25,3.89,3.75,6.07,9.49,8.38,14.6,3.79,8.4,1.39,12.9-7.94,12.88-7.2,0-14.39-2.39-21.59-3.72-5.88-5.24-11.24-11.26-17.75-15.55-15.53-10.25-31.36-20.1-47.57-29.21-5.76-3.23-13-3.86-19.53-5.67l12.12-8.07c.19-1.13.89-3,.47-3.27-5.29-3.88-10.59-7.78-16.18-11.21-22.94-14.08-46-28-69-42l-8.81-2.18q-.49-3-1-6.06c-.74-1.36-1.13-3.3-2.27-4q-40.32-24.16-80.79-48.08c-3.12,0-6.35-.45-9.35.18C1285.47,584.9,1282,586.59,1278.39,587.89Z" transform="translate(100.1 71.8)"/>
      <path class="cls-69" d="M1517.33,755.13c-8.08-1.87-16.58-2.71-24.15-5.81-17.24-7.07-34.08-15.13-51-23-6.26-2.93-12.19-6.54-18.28-9.85L1421.5,715l-2.17-2.08,2.21-1.71a6.9,6.9,0,0,0,1.61-.29l8.55,3.82c18.06,8.8,36,17.73,54.19,26.36C1496.25,746,1506.84,750.47,1517.33,755.13Z" transform="translate(100.1 71.8)"/>
      <path class="cls-70" d="M1431.7,714.73l-8.55-3.83,52.91-10.21-12.12,8.07Z" transform="translate(100.1 71.8)"/>
      <path class="cls-46" d="M1091.25,807.43c-4.32-3.35-8.38-7.15-13-10-8.27-5-16.89-9.49-25.36-14.18L1022,759.32l18.84-18.19c8.58.1,14.25,4.47,17.71,12.08,1,3.13,1.33,6.91,3.32,9.22,2.25,2.61,5.9,4.19,9.17,5.72,12.44,5.8,22,18.93,38.22,15.14l18,10.08L1097,809.55Z" transform="translate(100.1 71.8)"/>
      <path class="cls-71" d="M1109.24,783.29c-16.23,3.79-25.78-9.34-38.22-15.14-3.27-1.53-6.92-3.11-9.17-5.72-2-2.31-2.28-6.09-3.32-9.22.94-.31,2.2-1.18,2.78-.86,14.49,8.14,29,16.29,43.28,24.76C1106.64,778.33,1107.71,781.19,1109.24,783.29Z" transform="translate(100.1 71.8)"/>
      <path class="cls-72" d="M1097,809.55l30.3-16.18a6.92,6.92,0,0,0,1.81.19l2.08,3.71-27.91,16.59Z" transform="translate(100.1 71.8)"/>
      <path class="cls-73" d="M1040.82,741.13,1022,759.32c-3.53-11.17,2.7-17.17,11.54-21.79Z" transform="translate(100.1 71.8)"/>
      <path class="cls-3" d="M1566.88,535c-4-.55-8.35-.35-12-1.77-12.91-5-25.79-10.15-38.34-16-9.68-4.49-19.36-9.34-28.15-15.34-13.95-9.52-27.36-19.89-40.52-30.49-2.83-2.28-3.65-7.08-5.39-10.72,4.35-.12,9.37-1.73,13-.13,25,11.27,51.1,20.11,73.66,37,14.14,10.58,29,19.76,39,34.52C1567.69,533.08,1567.28,534.05,1566.88,535Z" transform="translate(100.1 71.8)"/>
      <path class="cls-74" d="M1631.3,896.27c-2-4.07-3-9.33-6.17-11.93-5.32-4.35-12-7-18.15-10.36l6.63-5.64c4,2.44,8.24,4.46,11.8,7.39C1631.91,881.08,1636.73,887.31,1631.3,896.27Z" transform="translate(100.1 71.8)"/>
      <path class="cls-75" d="M1379.44,950.35l4.14,4.33-26.71,14.22-8.08-3.74Z" transform="translate(100.1 71.8)"/>
      <path class="cls-76" d="M1302.8,902.47l70.46,42.19c-1.93,2-3.54,4.49-5.83,5.84-7.3,4.3-14.84,8.16-22.29,12.19-24.89-15.4-49.73-30.88-74.69-46.17-10.27-6.29-20.93-12-31.17-18.31-28-17.34-55.86-34.9-83.78-52.37l.66-.46c2.26-.15,5.37.6,6.65-.6,10.22-9.61,19.87-6.42,29.64.57q17.67,12.64,35.43,25.18c-7.7,4.88-6.83,10.22-.13,14.85,9.29,6.4,19,12.1,28.49,18.29C1272.08,914.06,1287.56,913.76,1302.8,902.47Z" transform="translate(100.1 71.8)"/>
      <path class="cls-76" d="M1103.26,813.86l27.91-16.59c14.35,8.32,28.79,16.5,43,25q28.35,16.9,56.4,34.35c2.54,1.58,4.06,4.82,6.05,7.29l-4.65,3.28a2.12,2.12,0,0,1-1.59.57c-4.17-3.7-7.93-8.06-12.59-11-13.52-8.47-27.4-16.37-41.28-24.57l-20.39,13.18-.66.46Z" transform="translate(100.1 71.8)"/>
      <path class="cls-77" d="M1345.14,962.69c7.45-4,15-7.89,22.29-12.19,2.29-1.35,3.9-3.86,5.83-5.84l6.18,5.69-30.65,14.81Z" transform="translate(100.1 71.8)"/>
      <path class="cls-78" d="M1421.5,715l2.44,1.45c-6.55,2.77-13,5.95-19.7,8.15-4.94,1.61-10.67,1-15.41,3-6.11,2.54-9.08.15-11.67-4.66l0,.06q-4-14.34-8-28.68,7.08,15.16,14.18,30.32Z" transform="translate(100.1 71.8)"/>
      <path class="cls-79" d="M1238.22,626.32l2,1.86-8.18,4c2.38,4.65,4.3,9.63,7.27,13.87,3.12,4.47,7.24,8.25,10.92,12.33-11.72-7.8-22.88-16.14-28.11-30Z" transform="translate(100.1 71.8)"/>
      <path class="cls-80" d="M1232,867.18l4.65-3.27,51.92,30.39c-6.69.64-14.5,3.78-19.84,1.39-12-5.33-22.81-13.21-33.75-20.59C1233.09,873.81,1233,869.89,1232,867.18Z" transform="translate(100.1 71.8)"/>
      <path class="cls-81" d="M1302.8,902.47c-15.24,11.29-30.72,11.59-46.56,1.2-9.44-6.19-19.2-11.89-28.49-18.29-6.7-4.63-7.57-10,.13-14.85a1.75,1.75,0,0,0,.7,1.42c2.28,3.49,4,7.54,7,10.31,4,3.78,8.8,6.75,13.46,9.75,14.09,9.07,28.42,17,45.18,5.89Z" transform="translate(100.1 71.8)"/>
      <path class="cls-82" d="M1294.17,897.9c-16.76,11.1-31.09,3.18-45.18-5.89-4.66-3-9.46-6-13.46-9.75-2.94-2.77-4.67-6.82-7-10.3l1.84-4.2a2.12,2.12,0,0,0,1.59-.57c1,2.7,1.08,6.62,3,7.91,10.94,7.38,21.8,15.26,33.75,20.59,5.34,2.39,13.15-.75,19.84-1.39Z" transform="translate(100.1 71.8)"/>
      <path class="cls-4" d="M1369.22,694.31q4,14.36,8,28.69c-16.18,3.67-32.26,8-48.62,10.5-3.62.56-8.61-4.88-12.27-8.31-3.07-2.88-5.11-6.86-7.61-10.35-.83-11.69-1.65-23.38-2.53-35.8l6.63-.63,52.38,6Q1367.19,689.37,1369.22,694.31Z" transform="translate(100.1 71.8)"/>
      <path class="cls-36" d="M1365.16,684.4l-52.38-6-24.26-6.07v-1.85l70.87,9.85,5.73,2.81A7.47,7.47,0,0,0,1365.16,684.4Z" transform="translate(100.1 71.8)"/>
      <path class="cls-9" d="M1232.09,632.13l8.18-4c7.29-.82,14.75-1,21.8-2.77,3.12-.8,5.4-4.9,8.06-7.5l2.37,2.07c.46,2.26.12,5.52,1.5,6.62,9.37,7.46,19.09,14.46,28.7,21.6.67,1.38,1.34,2.77,2,4.15-5.85,4.22-11.6,8.59-17.57,12.61-8.3,5.59-21.42,2.95-28.26-4.68C1250.24,650.64,1241.05,641.49,1232.09,632.13Z" transform="translate(100.1 71.8)"/>
      <path class="cls-4" d="M1304.72,652.35c-.68-1.38-1.35-2.77-2-4.15l8,.11,48.67,32-70.87-9.85c5.09-4.25,10.32-8.34,15.16-12.85C1304.74,656.65,1304.41,654.15,1304.72,652.35Z" transform="translate(100.1 71.8)"/>
      <path class="cls-83" d="M1272.5,620l-2.37-2.07-11.85-12c1.5-.74,3.31-2.4,4.41-2,2,.69,3.51,2.61,5.23,4L1286.63,626l-2.1,1.84Z" transform="translate(100.1 71.8)"/>
      <path class="cls-9" d="M1286.63,626l-18.71-18.16.72-12.18,9.75-7.8c3.58-1.3,7.08-3,10.78-3.77,3-.63,6.23-.16,9.36-.18-1.15,2.18-3.38,4.45-3.22,6.53.5,6.57,2.22,13,2.89,19.61.91,8.78,1.28,17.61,1.88,26.42Z" transform="translate(100.1 71.8)"/>
      <path class="cls-4" d="M1476.06,700.69l-52.91,10.21a6.44,6.44,0,0,1-1.61.3c-25.26-14.42-50.66-28.6-75.69-43.4-8.21-4.85-15.46-11.32-23.14-17l20.18-2.48,48.48-4c23,14,46,27.88,69,42,5.59,3.43,10.89,7.33,16.18,11.21C1477,697.72,1476.25,699.56,1476.06,700.69Z" transform="translate(100.1 71.8)"/>
      <path class="cls-4" d="M1300.08,636.5c-.6-8.81-1-17.64-1.88-26.42-.67-6.57-2.39-13-2.89-19.61-.16-2.08,2.07-4.35,3.22-6.53q40.41,24,80.78,48.08c1.14.69,1.53,2.63,2.27,4-9.44,1.4-18.88,2.75-28.3,4.2-12.87,2-25.73,4.06-38.59,6.1Z" transform="translate(100.1 71.8)"/>
      <path class="cls-84" d="M1314.69,646.31c12.86-2,25.72-4.11,38.59-6.1,9.42-1.45,18.86-2.8,28.3-4.2q.48,3,1,6.06l-39.67,6.2-20.18,2.48Z" transform="translate(100.1 71.8)"/>
      <path class="cls-85" d="M1342.89,648.27l39.67-6.2,8.81,2.18Z" transform="translate(100.1 71.8)"/>
      <path class="cls-86" d="M1314.69,646.31l8,4.44c7.68,5.73,14.93,12.2,23.14,17,25,14.8,50.43,29,75.69,43.4l-2.21,1.71-7.71-2.45-38.3-22.06-8.2-5.25-5.73-2.81-48.67-32-26.19-20.44,2.1-1.84,13.45,10.47Z" transform="translate(100.1 71.8)"/>
      <path class="cls-28" d="M1411.62,710.46l7.71,2.45,2.17,2.08-38.1,9.65,6-7.73Z" transform="translate(100.1 71.8)"/>
      <path class="cls-87" d="M1230.42,867.76l-1.84,4.2a1.78,1.78,0,0,1-.7-1.43q-17.72-12.59-35.43-25.18c-9.77-7-19.42-10.18-29.64-.57-1.28,1.2-4.39.45-6.65.6l20.39-13.18c13.88,8.2,27.76,16.1,41.28,24.57C1222.49,859.7,1226.25,864.06,1230.42,867.76Z" transform="translate(100.1 71.8)"/>
      <path class="cls-88" d="M1389.4,716.91l-6,7.73q-7.1-15.15-14.18-30.32-2-5-4.06-9.92a7.47,7.47,0,0,1,0-1.25l8.2,5.25c2.8,8.37,5.25,16.89,8.66,25C1382.77,715.28,1386.84,715.77,1389.4,716.91Z" transform="translate(100.1 71.8)"/>
      <path class="cls-89" d="M1284.53,627.87l26.19,20.44-8-.11c-9.61-7.14-19.33-14.14-28.7-21.6-1.38-1.1-1-4.36-1.5-6.62Z" transform="translate(100.1 71.8)"/>
      <path class="cls-4" d="M1389.4,716.91c-2.56-1.14-6.63-1.63-7.42-3.51-3.41-8.11-5.86-16.63-8.66-25l38.3,22.06Z" transform="translate(100.1 71.8)"/>
    </g>
    <path class="cls-90" d="M-.18,654.1S112.93,771,201.69,806.48s187.88,56.22,338.78,97.64,266.29,174.57,266.29,174.57l-276.64,128.7-630.22-19.23v-395Z" transform="translate(100.1 71.8)"/>
    <path class="cls-91" d="M1711.46-5s-48.92,52,26.21,123.63,57.65,103.09,136.27,146.76,267.32-54.16,267.32-54.16l-7-274.3-332-8.73Z" transform="translate(100.1 71.8)"/>
  </g>
</svg>
